<svg xmlns="http://www.w3.org/2000/svg" xmlns:xlink="http://www.w3.org/1999/xlink" width="250" zoomAndPan="magnify" viewBox="0 0 187.5 187.499992" height="250" preserveAspectRatio="xMidYMid meet" version="1.2"><defs><clipPath id="fec472bce7"><path d="M 54 67.515625 L 152.324219 67.515625 L 152.324219 130.347656 L 54 130.347656 Z M 54 67.515625 "/></clipPath><clipPath id="b5da9f94f2"><path d="M 34.886719 82 L 77 82 L 77 86 L 34.886719 86 Z M 34.886719 82 "/></clipPath><clipPath id="bc47459e6c"><path d="M 54 67.515625 L 152.324219 67.515625 L 152.324219 130.347656 L 54 130.347656 Z M 54 67.515625 "/></clipPath><clipPath id="c012daad1b"><path d="M 34.886719 82 L 77 82 L 77 86 L 34.886719 86 Z M 34.886719 82 "/></clipPath></defs><g id="e087241750"><path style=" stroke:none;fill-rule:nonzero;fill:#ffffff;fill-opacity:1;" d="M 0 0 L 187 0 L 187 187 L 0 187 Z M 0 0 "/><path style=" stroke:none;fill-rule:nonzero;fill:#ffffff;fill-opacity:1;" d="M 0 0 L 187 0 L 187 187 L 0 187 Z M 0 0 "/><g clip-rule="nonzero" clip-path="url(#fec472bce7)"><path style=" stroke:none;fill-rule:nonzero;fill:#1d1d1b;fill-opacity:1;" d="M 151.542969 98.941406 L 142.132812 82.226562 L 142.101562 82.179688 C 141.203125 80.703125 139.683594 79.820312 138.042969 79.820312 L 126.503906 79.820312 L 127.3125 73.953125 C 127.535156 72.332031 127.046875 70.695312 125.972656 69.457031 C 124.902344 68.222656 123.347656 67.515625 121.714844 67.515625 L 65.929688 67.515625 C 65.070312 67.515625 64.371094 68.214844 64.371094 69.078125 C 64.371094 69.9375 65.070312 70.640625 65.929688 70.640625 L 121.714844 70.640625 C 122.457031 70.640625 123.136719 70.949219 123.625 71.511719 C 124.113281 72.070312 124.328125 72.789062 124.226562 73.527344 L 123.355469 79.820312 L 123.308594 79.820312 L 118.1875 116.054688 L 118.179688 116.09375 C 118.066406 117.078125 117.992188 117.824219 117.941406 118.390625 L 90.53125 118.390625 C 89.777344 113.394531 85.464844 109.554688 80.273438 109.554688 C 75.082031 109.554688 70.769531 113.394531 70.015625 118.390625 L 60.050781 118.390625 C 59.304688 118.390625 58.628906 118.082031 58.140625 117.519531 C 57.652344 116.957031 57.4375 116.242188 57.539062 115.503906 L 58.601562 107.800781 C 58.71875 106.949219 58.121094 106.160156 57.269531 106.042969 C 56.417969 105.921875 55.632812 106.519531 55.515625 107.375 L 54.453125 115.074219 C 54.230469 116.699219 54.71875 118.335938 55.789062 119.570312 C 56.863281 120.804688 58.417969 121.511719 60.050781 121.511719 L 70.015625 121.511719 C 70.769531 126.507812 75.082031 130.351562 80.273438 130.351562 C 85.464844 130.351562 89.777344 126.507812 90.53125 121.511719 L 123.117188 121.511719 C 123.871094 126.507812 128.183594 130.351562 133.375 130.351562 C 138.566406 130.351562 142.875 126.507812 143.628906 121.511719 L 145.648438 121.511719 C 148.296875 121.511719 150.457031 119.21875 150.507812 116.378906 L 152.3125 101.996094 L 152.328125 101.800781 C 152.328125 100.78125 152.054688 99.792969 151.542969 98.941406 Z M 87.53125 119.953125 C 87.53125 120.488281 87.472656 121.011719 87.359375 121.511719 C 86.644531 124.777344 83.742188 127.226562 80.273438 127.226562 C 76.804688 127.226562 73.898438 124.777344 73.183594 121.511719 C 73.074219 121.007812 73.015625 120.488281 73.015625 119.953125 C 73.015625 119.414062 73.074219 118.894531 73.183594 118.390625 C 73.898438 115.125 76.804688 112.675781 80.273438 112.675781 C 83.738281 112.675781 86.644531 115.128906 87.359375 118.390625 C 87.472656 118.894531 87.53125 119.414062 87.53125 119.953125 Z M 140.632812 119.953125 C 140.632812 120.488281 140.570312 121.011719 140.460938 121.511719 C 139.746094 124.777344 136.839844 127.226562 133.375 127.226562 C 129.90625 127.226562 127 124.777344 126.285156 121.511719 C 126.175781 121.007812 126.113281 120.488281 126.113281 119.953125 C 126.113281 119.414062 126.175781 118.894531 126.285156 118.390625 C 127 115.125 129.90625 112.675781 133.375 112.675781 C 136.839844 112.675781 139.746094 115.128906 140.460938 118.390625 C 140.570312 118.894531 140.632812 119.414062 140.632812 119.953125 Z M 147.40625 116.078125 L 147.390625 116.273438 C 147.390625 117.441406 146.609375 118.390625 145.648438 118.390625 L 143.628906 118.390625 C 142.875 113.394531 138.5625 109.554688 133.375 109.554688 C 128.183594 109.554688 123.871094 113.394531 123.117188 118.390625 L 121.1875 118.390625 L 126.074219 82.945312 L 138.042969 82.945312 C 138.585938 82.945312 139.101562 83.261719 139.433594 83.789062 L 148.839844 100.5 L 148.867188 100.546875 C 149.078125 100.890625 149.195312 101.292969 149.207031 101.710938 Z M 147.40625 116.078125 "/></g><path style=" stroke:none;fill-rule:nonzero;fill:#1d1d1b;fill-opacity:1;" d="M 137.898438 86.25 C 137.503906 85.464844 136.707031 84.976562 135.828125 84.976562 L 129.539062 84.976562 C 128.371094 84.976562 127.382812 85.847656 127.230469 87.003906 L 125.871094 97.519531 C 125.789062 98.183594 125.992188 98.855469 126.433594 99.359375 C 126.875 99.863281 127.507812 100.148438 128.179688 100.148438 L 141.164062 100.148438 C 141.976562 100.148438 142.71875 99.734375 143.144531 99.039062 C 143.570312 98.34375 143.605469 97.492188 143.234375 96.765625 L 137.902344 86.25 Z M 129.078125 97.027344 L 130.234375 88.097656 L 135.34375 88.097656 L 139.871094 97.027344 Z M 129.078125 97.027344 "/><g clip-rule="nonzero" clip-path="url(#b5da9f94f2)"><path style=" stroke:none;fill-rule:nonzero;fill:#1d1d1b;fill-opacity:1;" d="M 76.703125 83.984375 C 76.703125 83.121094 76.007812 82.421875 75.144531 82.421875 L 36.449219 82.421875 C 35.585938 82.421875 34.890625 83.121094 34.890625 83.984375 C 34.890625 84.847656 35.585938 85.546875 36.449219 85.546875 L 75.144531 85.546875 C 76.003906 85.546875 76.703125 84.847656 76.703125 83.984375 Z M 76.703125 83.984375 "/></g><path style=" stroke:none;fill-rule:nonzero;fill:#1d1d1b;fill-opacity:1;" d="M 85.617188 91.398438 L 46.917969 91.398438 C 46.058594 91.398438 45.363281 92.097656 45.363281 92.960938 C 45.363281 93.820312 46.058594 94.519531 46.917969 94.519531 L 85.617188 94.519531 C 86.476562 94.519531 87.175781 93.820312 87.175781 92.960938 C 87.175781 92.097656 86.476562 91.398438 85.617188 91.398438 Z M 85.617188 91.398438 "/><path style=" stroke:none;fill-rule:nonzero;fill:#1d1d1b;fill-opacity:1;" d="M 71.96875 101.933594 C 71.96875 101.074219 71.273438 100.375 70.410156 100.375 L 41.183594 100.375 C 40.324219 100.375 39.625 101.074219 39.625 101.933594 C 39.625 102.796875 40.324219 103.496094 41.183594 103.496094 L 70.410156 103.496094 C 71.273438 103.496094 71.96875 102.796875 71.96875 101.933594 Z M 71.96875 101.933594 "/><path style=" stroke:none;fill-rule:nonzero;fill:#1d1d1b;fill-opacity:1;" d="M 47.253906 77.242188 L 85.953125 77.242188 C 86.8125 77.242188 87.507812 76.542969 87.507812 75.683594 C 87.507812 74.820312 86.8125 74.121094 85.953125 74.121094 L 47.253906 74.121094 C 46.394531 74.121094 45.695312 74.820312 45.695312 75.683594 C 45.695312 76.542969 46.394531 77.242188 47.253906 77.242188 Z M 47.253906 77.242188 "/><g clip-rule="nonzero" clip-path="url(#bc47459e6c)"><path style=" stroke:none;fill-rule:nonzero;fill:#1d1d1b;fill-opacity:1;" d="M 151.542969 98.941406 L 142.132812 82.226562 L 142.101562 82.179688 C 141.203125 80.703125 139.683594 79.820312 138.042969 79.820312 L 126.503906 79.820312 L 127.3125 73.953125 C 127.535156 72.332031 127.046875 70.695312 125.972656 69.457031 C 124.902344 68.222656 123.347656 67.515625 121.714844 67.515625 L 65.929688 67.515625 C 65.070312 67.515625 64.371094 68.214844 64.371094 69.078125 C 64.371094 69.9375 65.070312 70.640625 65.929688 70.640625 L 121.714844 70.640625 C 122.457031 70.640625 123.136719 70.949219 123.625 71.511719 C 124.113281 72.070312 124.328125 72.789062 124.226562 73.527344 L 123.355469 79.820312 L 123.308594 79.820312 L 118.1875 116.054688 L 118.179688 116.09375 C 118.066406 117.078125 117.992188 117.824219 117.941406 118.390625 L 90.53125 118.390625 C 89.777344 113.394531 85.464844 109.554688 80.273438 109.554688 C 75.082031 109.554688 70.769531 113.394531 70.015625 118.390625 L 60.050781 118.390625 C 59.304688 118.390625 58.628906 118.082031 58.140625 117.519531 C 57.652344 116.957031 57.4375 116.242188 57.539062 115.503906 L 58.601562 107.800781 C 58.71875 106.949219 58.121094 106.160156 57.269531 106.042969 C 56.417969 105.921875 55.632812 106.519531 55.515625 107.375 L 54.453125 115.074219 C 54.230469 116.699219 54.71875 118.335938 55.789062 119.570312 C 56.863281 120.804688 58.417969 121.511719 60.050781 121.511719 L 70.015625 121.511719 C 70.769531 126.507812 75.082031 130.351562 80.273438 130.351562 C 85.464844 130.351562 89.777344 126.507812 90.53125 121.511719 L 123.117188 121.511719 C 123.871094 126.507812 128.183594 130.351562 133.375 130.351562 C 138.566406 130.351562 142.875 126.507812 143.628906 121.511719 L 145.648438 121.511719 C 148.296875 121.511719 150.457031 119.21875 150.507812 116.378906 L 152.3125 101.996094 L 152.328125 101.800781 C 152.328125 100.78125 152.054688 99.792969 151.542969 98.941406 Z M 87.53125 119.953125 C 87.53125 120.488281 87.472656 121.011719 87.359375 121.511719 C 86.644531 124.777344 83.742188 127.226562 80.273438 127.226562 C 76.804688 127.226562 73.898438 124.777344 73.183594 121.511719 C 73.074219 121.007812 73.015625 120.488281 73.015625 119.953125 C 73.015625 119.414062 73.074219 118.894531 73.183594 118.390625 C 73.898438 115.125 76.804688 112.675781 80.273438 112.675781 C 83.738281 112.675781 86.644531 115.128906 87.359375 118.390625 C 87.472656 118.894531 87.53125 119.414062 87.53125 119.953125 Z M 140.632812 119.953125 C 140.632812 120.488281 140.570312 121.011719 140.460938 121.511719 C 139.746094 124.777344 136.839844 127.226562 133.375 127.226562 C 129.90625 127.226562 127 124.777344 126.285156 121.511719 C 126.175781 121.007812 126.113281 120.488281 126.113281 119.953125 C 126.113281 119.414062 126.175781 118.894531 126.285156 118.390625 C 127 115.125 129.90625 112.675781 133.375 112.675781 C 136.839844 112.675781 139.746094 115.128906 140.460938 118.390625 C 140.570312 118.894531 140.632812 119.414062 140.632812 119.953125 Z M 147.40625 116.078125 L 147.390625 116.273438 C 147.390625 117.441406 146.609375 118.390625 145.648438 118.390625 L 143.628906 118.390625 C 142.875 113.394531 138.5625 109.554688 133.375 109.554688 C 128.183594 109.554688 123.871094 113.394531 123.117188 118.390625 L 121.1875 118.390625 L 126.074219 82.945312 L 138.042969 82.945312 C 138.585938 82.945312 139.101562 83.261719 139.433594 83.789062 L 148.839844 100.5 L 148.867188 100.546875 C 149.078125 100.890625 149.195312 101.292969 149.207031 101.710938 Z M 147.40625 116.078125 "/></g><path style=" stroke:none;fill-rule:nonzero;fill:#1d1d1b;fill-opacity:1;" d="M 137.898438 86.25 C 137.503906 85.464844 136.707031 84.976562 135.828125 84.976562 L 129.539062 84.976562 C 128.371094 84.976562 127.382812 85.847656 127.230469 87.003906 L 125.871094 97.519531 C 125.789062 98.183594 125.992188 98.855469 126.433594 99.359375 C 126.875 99.863281 127.507812 100.148438 128.179688 100.148438 L 141.164062 100.148438 C 141.976562 100.148438 142.71875 99.734375 143.144531 99.039062 C 143.570312 98.34375 143.605469 97.492188 143.234375 96.765625 L 137.902344 86.25 Z M 129.078125 97.027344 L 130.234375 88.097656 L 135.34375 88.097656 L 139.871094 97.027344 Z M 129.078125 97.027344 "/><g clip-rule="nonzero" clip-path="url(#c012daad1b)"><path style=" stroke:none;fill-rule:nonzero;fill:#1d1d1b;fill-opacity:1;" d="M 76.703125 83.984375 C 76.703125 83.121094 76.007812 82.421875 75.144531 82.421875 L 36.449219 82.421875 C 35.585938 82.421875 34.890625 83.121094 34.890625 83.984375 C 34.890625 84.847656 35.585938 85.546875 36.449219 85.546875 L 75.144531 85.546875 C 76.003906 85.546875 76.703125 84.847656 76.703125 83.984375 Z M 76.703125 83.984375 "/></g><path style=" stroke:none;fill-rule:nonzero;fill:#1d1d1b;fill-opacity:1;" d="M 85.617188 91.398438 L 46.917969 91.398438 C 46.058594 91.398438 45.363281 92.097656 45.363281 92.960938 C 45.363281 93.820312 46.058594 94.519531 46.917969 94.519531 L 85.617188 94.519531 C 86.476562 94.519531 87.175781 93.820312 87.175781 92.960938 C 87.175781 92.097656 86.476562 91.398438 85.617188 91.398438 Z M 85.617188 91.398438 "/><path style=" stroke:none;fill-rule:nonzero;fill:#1d1d1b;fill-opacity:1;" d="M 71.96875 101.933594 C 71.96875 101.074219 71.273438 100.375 70.410156 100.375 L 41.183594 100.375 C 40.324219 100.375 39.625 101.074219 39.625 101.933594 C 39.625 102.796875 40.324219 103.496094 41.183594 103.496094 L 70.410156 103.496094 C 71.273438 103.496094 71.96875 102.796875 71.96875 101.933594 Z M 71.96875 101.933594 "/><path style=" stroke:none;fill-rule:nonzero;fill:#1d1d1b;fill-opacity:1;" d="M 47.253906 77.242188 L 85.953125 77.242188 C 86.8125 77.242188 87.507812 76.542969 87.507812 75.683594 C 87.507812 74.820312 86.8125 74.121094 85.953125 74.121094 L 47.253906 74.121094 C 46.394531 74.121094 45.695312 74.820312 45.695312 75.683594 C 45.695312 76.542969 46.394531 77.242188 47.253906 77.242188 Z M 47.253906 77.242188 "/></g></svg>