<svg xmlns="http://www.w3.org/2000/svg" xmlns:xlink="http://www.w3.org/1999/xlink" width="500" zoomAndPan="magnify" viewBox="0 0 375 374.999991" height="500" preserveAspectRatio="xMidYMid meet" version="1.2"><defs><clipPath id="84d475d67b"><path d="M 106.539062 227.261719 L 268.539062 227.261719 L 268.539062 267.464844 L 106.539062 267.464844 Z M 106.539062 227.261719 "/></clipPath><clipPath id="8d15cb1b23"><path d="M 106.457031 85.566406 L 268.457031 85.566406 L 268.457031 125.769531 L 106.457031 125.769531 Z M 106.457031 85.566406 "/></clipPath></defs><g id="74fad27edf"><rect x="0" width="375" y="0" height="374.999991" style="fill:#ffffff;fill-opacity:1;stroke:none;"/><rect x="0" width="375" y="0" height="374.999991" style="fill:#ffffff;fill-opacity:1;stroke:none;"/><g style="fill:#000000;fill-opacity:1;"><g transform="translate(63.263153, 169.541869)"><path style="stroke:none" d="M 1.234375 -29 C 0.867188 -29.25 0.753906 -29.613281 0.890625 -30.09375 C 1.035156 -30.582031 1.320312 -30.828125 1.75 -30.828125 L 15.453125 -30.875 C 19.390625 -30.90625 22.800781 -30.34375 25.6875 -29.1875 C 28.570312 -28.03125 30.796875 -26.304688 32.359375 -24.015625 C 33.929688 -21.722656 34.71875 -18.859375 34.71875 -15.421875 C 34.71875 -11.972656 33.929688 -9.109375 32.359375 -6.828125 C 30.796875 -4.554688 28.578125 -2.847656 25.703125 -1.703125 C 22.828125 -0.566406 19.410156 0 15.453125 0 L 1.75 0 C 1.320312 0 1.035156 -0.238281 0.890625 -0.71875 C 0.753906 -1.207031 0.867188 -1.582031 1.234375 -1.84375 C 1.429688 -1.976562 1.71875 -2.144531 2.09375 -2.34375 C 2.863281 -2.75 3.25 -3.363281 3.25 -4.1875 L 3.25 -26.640625 C 3.25 -27.472656 2.863281 -28.101562 2.09375 -28.53125 C 1.925781 -28.613281 1.769531 -28.695312 1.625 -28.78125 C 1.476562 -28.863281 1.347656 -28.9375 1.234375 -29 Z M 13.703125 -3.84375 C 13.703125 -3.46875 13.820312 -3.160156 14.0625 -2.921875 C 14.3125 -2.679688 14.617188 -2.5625 14.984375 -2.5625 C 18.148438 -2.5625 20.484375 -3.597656 21.984375 -5.671875 C 23.492188 -7.753906 24.25 -10.988281 24.25 -15.375 C 24.25 -19.757812 23.507812 -23.003906 22.03125 -25.109375 C 20.550781 -27.210938 18.203125 -28.28125 14.984375 -28.3125 C 14.617188 -28.3125 14.3125 -28.191406 14.0625 -27.953125 C 13.820312 -27.710938 13.703125 -27.390625 13.703125 -26.984375 Z M 13.703125 -3.84375 "/></g></g><g style="fill:#000000;fill-opacity:1;"><g transform="translate(104.771444, 169.541869)"><path style="stroke:none" d="M 3.453125 0 C 3.023438 0 2.738281 -0.238281 2.59375 -0.71875 C 2.457031 -1.207031 2.578125 -1.582031 2.953125 -1.84375 C 3.148438 -1.976562 3.429688 -2.144531 3.796875 -2.34375 C 4.566406 -2.75 4.953125 -3.363281 4.953125 -4.1875 L 4.953125 -26.78125 C 4.953125 -27.632812 4.566406 -28.242188 3.796875 -28.609375 C 3.429688 -28.804688 3.148438 -28.976562 2.953125 -29.125 C 2.578125 -29.382812 2.457031 -29.753906 2.59375 -30.234375 C 2.738281 -30.710938 3.023438 -30.953125 3.453125 -30.953125 L 16.703125 -30.953125 C 17.148438 -30.953125 17.445312 -30.710938 17.59375 -30.234375 C 17.738281 -29.753906 17.625 -29.382812 17.25 -29.125 C 17.132812 -29.039062 17.015625 -28.953125 16.890625 -28.859375 C 16.765625 -28.773438 16.644531 -28.707031 16.53125 -28.65625 C 15.789062 -28.195312 15.421875 -27.570312 15.421875 -26.78125 L 15.421875 -4.1875 C 15.421875 -3.382812 15.789062 -2.757812 16.53125 -2.3125 C 16.644531 -2.25 16.765625 -2.175781 16.890625 -2.09375 C 17.015625 -2.007812 17.132812 -1.925781 17.25 -1.84375 C 17.625 -1.582031 17.738281 -1.207031 17.59375 -0.71875 C 17.445312 -0.238281 17.148438 0 16.703125 0 Z M 3.453125 0 "/></g></g><g style="fill:#000000;fill-opacity:1;"><g transform="translate(130.693099, 169.541869)"><path style="stroke:none" d="M 1.5 -15.453125 C 1.382812 -18.703125 1.972656 -21.53125 3.265625 -23.9375 C 4.554688 -26.34375 6.476562 -28.207031 9.03125 -29.53125 C 11.582031 -30.851562 14.664062 -31.515625 18.28125 -31.515625 C 22.09375 -31.515625 25.25 -30.921875 27.75 -29.734375 C 30.257812 -28.554688 31.925781 -26.882812 32.75 -24.71875 C 33.207031 -23.550781 33.320312 -22.460938 33.09375 -21.453125 C 32.863281 -20.441406 32.363281 -19.613281 31.59375 -18.96875 C 30.832031 -18.332031 29.835938 -17.957031 28.609375 -17.84375 C 26.648438 -17.707031 25.097656 -18.085938 23.953125 -18.984375 C 22.816406 -19.878906 22.265625 -21.164062 22.296875 -22.84375 C 22.347656 -24.613281 22.117188 -25.953125 21.609375 -26.859375 C 21.097656 -27.773438 20.40625 -28.375 19.53125 -28.65625 C 18.664062 -28.9375 17.707031 -29.007812 16.65625 -28.875 C 15.144531 -28.695312 14.019531 -27.984375 13.28125 -26.734375 C 12.539062 -25.484375 12.097656 -23.832031 11.953125 -21.78125 C 11.816406 -19.726562 11.90625 -17.378906 12.21875 -14.734375 C 12.351562 -13.566406 12.601562 -12.304688 12.96875 -10.953125 C 13.34375 -9.597656 13.875 -8.320312 14.5625 -7.125 C 15.25 -5.9375 16.097656 -4.957031 17.109375 -4.1875 C 18.117188 -3.414062 19.332031 -3.015625 20.75 -2.984375 C 21.40625 -2.898438 21.875 -3.1875 22.15625 -3.84375 C 22.445312 -4.5 22.617188 -5.332031 22.671875 -6.34375 C 22.734375 -7.351562 22.765625 -8.359375 22.765625 -9.359375 C 22.734375 -9.867188 22.609375 -10.25 22.390625 -10.5 C 22.179688 -10.757812 21.90625 -10.988281 21.5625 -11.1875 C 21.394531 -11.269531 21.101562 -11.351562 20.6875 -11.4375 C 20.28125 -11.53125 20.019531 -11.617188 19.90625 -11.703125 C 19.53125 -11.929688 19.410156 -12.285156 19.546875 -12.765625 C 19.691406 -13.253906 19.976562 -13.5 20.40625 -13.5 L 33.65625 -13.5 C 34.101562 -13.5 34.398438 -13.253906 34.546875 -12.765625 C 34.691406 -12.285156 34.578125 -11.929688 34.203125 -11.703125 C 34.085938 -11.617188 33.96875 -11.53125 33.84375 -11.4375 C 33.71875 -11.351562 33.597656 -11.269531 33.484375 -11.1875 C 33.140625 -10.988281 32.867188 -10.71875 32.671875 -10.375 C 32.472656 -10.03125 32.375 -9.675781 32.375 -9.3125 L 32.375 -1.28125 C 32.375 -0.90625 32.257812 -0.617188 32.03125 -0.421875 C 31.800781 -0.222656 31.5 -0.179688 31.125 -0.296875 C 30.582031 -0.441406 30.035156 -0.597656 29.484375 -0.765625 C 28.929688 -0.941406 28.328125 -1.03125 27.671875 -1.03125 C 27.015625 -1.03125 26.300781 -0.898438 25.53125 -0.640625 C 24.425781 -0.179688 23.273438 0.128906 22.078125 0.296875 C 20.878906 0.472656 19.695312 0.5625 18.53125 0.5625 C 14.914062 0.5625 11.863281 -0.128906 9.375 -1.515625 C 6.882812 -2.898438 4.976562 -4.789062 3.65625 -7.1875 C 2.332031 -9.59375 1.613281 -12.347656 1.5 -15.453125 Z M 1.5 -15.453125 "/></g></g><g style="fill:#000000;fill-opacity:1;"><g transform="translate(172.073273, 169.541869)"><path style="stroke:none" d="M 3.453125 0 C 3.023438 0 2.738281 -0.238281 2.59375 -0.71875 C 2.457031 -1.207031 2.578125 -1.582031 2.953125 -1.84375 C 3.148438 -1.976562 3.429688 -2.144531 3.796875 -2.34375 C 4.566406 -2.75 4.953125 -3.363281 4.953125 -4.1875 L 4.953125 -26.78125 C 4.953125 -27.632812 4.566406 -28.242188 3.796875 -28.609375 C 3.429688 -28.804688 3.148438 -28.976562 2.953125 -29.125 C 2.578125 -29.382812 2.457031 -29.753906 2.59375 -30.234375 C 2.738281 -30.710938 3.023438 -30.953125 3.453125 -30.953125 L 16.703125 -30.953125 C 17.148438 -30.953125 17.445312 -30.710938 17.59375 -30.234375 C 17.738281 -29.753906 17.625 -29.382812 17.25 -29.125 C 17.132812 -29.039062 17.015625 -28.953125 16.890625 -28.859375 C 16.765625 -28.773438 16.644531 -28.707031 16.53125 -28.65625 C 15.789062 -28.195312 15.421875 -27.570312 15.421875 -26.78125 L 15.421875 -4.1875 C 15.421875 -3.382812 15.789062 -2.757812 16.53125 -2.3125 C 16.644531 -2.25 16.765625 -2.175781 16.890625 -2.09375 C 17.015625 -2.007812 17.132812 -1.925781 17.25 -1.84375 C 17.625 -1.582031 17.738281 -1.207031 17.59375 -0.71875 C 17.445312 -0.238281 17.148438 0 16.703125 0 Z M 3.453125 0 "/></g></g><g style="fill:#000000;fill-opacity:1;"><g transform="translate(197.994929, 169.541869)"><path style="stroke:none" d="M 4.0625 -24.515625 C 3.601562 -23.828125 3.03125 -23.484375 2.34375 -23.484375 C 1.945312 -23.484375 1.613281 -23.632812 1.34375 -23.9375 C 1.070312 -24.238281 0.992188 -24.6875 1.109375 -25.28125 C 1.222656 -26.019531 1.375 -26.796875 1.5625 -27.609375 C 1.75 -28.421875 1.910156 -29.109375 2.046875 -29.671875 C 2.128906 -30.078125 2.320312 -30.382812 2.625 -30.59375 C 2.925781 -30.8125 3.257812 -30.921875 3.625 -30.921875 L 29.9375 -30.921875 C 30.789062 -30.921875 31.332031 -30.503906 31.5625 -29.671875 C 31.695312 -29.109375 31.847656 -28.421875 32.015625 -27.609375 C 32.191406 -26.796875 32.335938 -26.019531 32.453125 -25.28125 C 32.566406 -24.6875 32.488281 -24.238281 32.21875 -23.9375 C 31.945312 -23.632812 31.613281 -23.484375 31.21875 -23.484375 C 30.5625 -23.484375 29.992188 -23.828125 29.515625 -24.515625 C 29.140625 -25.109375 28.757812 -25.703125 28.375 -26.296875 C 27.988281 -26.898438 27.410156 -27.398438 26.640625 -27.796875 C 25.878906 -28.191406 24.753906 -28.390625 23.265625 -28.390625 L 22.03125 -28.390625 L 22.03125 -4.1875 C 22.03125 -3.414062 22.390625 -2.789062 23.109375 -2.3125 C 23.242188 -2.25 23.375 -2.175781 23.5 -2.09375 C 23.632812 -2.007812 23.757812 -1.925781 23.875 -1.84375 C 24.238281 -1.582031 24.34375 -1.207031 24.1875 -0.71875 C 24.03125 -0.238281 23.722656 0 23.265625 0 L 10.078125 0 C 9.648438 0 9.363281 -0.238281 9.21875 -0.71875 C 9.082031 -1.207031 9.179688 -1.582031 9.515625 -1.84375 C 9.660156 -1.925781 9.800781 -2.007812 9.9375 -2.09375 C 10.082031 -2.175781 10.226562 -2.257812 10.375 -2.34375 C 10.75 -2.519531 11.035156 -2.773438 11.234375 -3.109375 C 11.429688 -3.453125 11.546875 -3.8125 11.578125 -4.1875 L 11.578125 -28.390625 L 10.296875 -28.390625 C 8.816406 -28.390625 7.695312 -28.191406 6.9375 -27.796875 C 6.1875 -27.398438 5.617188 -26.898438 5.234375 -26.296875 C 4.847656 -25.703125 4.457031 -25.109375 4.0625 -24.515625 Z M 4.0625 -24.515625 "/></g></g><g style="fill:#000000;fill-opacity:1;"><g transform="translate(237.282654, 169.541869)"><path style="stroke:none" d="M 2 0 C 1.550781 0 1.253906 -0.238281 1.109375 -0.71875 C 0.960938 -1.207031 1.078125 -1.582031 1.453125 -1.84375 C 1.617188 -1.945312 1.785156 -2.050781 1.953125 -2.15625 C 2.128906 -2.257812 2.316406 -2.367188 2.515625 -2.484375 C 3.367188 -2.910156 3.925781 -3.445312 4.1875 -4.09375 L 14.171875 -28.828125 L 13.1875 -31.46875 C 13.082031 -31.84375 13.097656 -32.128906 13.234375 -32.328125 C 13.378906 -32.523438 13.632812 -32.609375 14 -32.578125 L 22.796875 -32.0625 C 23.203125 -32.039062 23.566406 -31.914062 23.890625 -31.6875 C 24.222656 -31.457031 24.441406 -31.15625 24.546875 -30.78125 L 35.109375 -4.09375 C 35.421875 -3.351562 35.957031 -2.769531 36.71875 -2.34375 C 36.863281 -2.257812 37.003906 -2.175781 37.140625 -2.09375 C 37.285156 -2.007812 37.414062 -1.925781 37.53125 -1.84375 C 37.90625 -1.582031 38.019531 -1.207031 37.875 -0.71875 C 37.738281 -0.238281 37.441406 0 36.984375 0 L 22.46875 0 C 22.039062 0 21.753906 -0.238281 21.609375 -0.71875 C 21.460938 -1.207031 21.578125 -1.582031 21.953125 -1.84375 C 22.066406 -1.894531 22.179688 -1.96875 22.296875 -2.0625 C 22.410156 -2.164062 22.519531 -2.257812 22.625 -2.34375 C 23.28125 -2.914062 23.492188 -3.554688 23.265625 -4.265625 L 21.78125 -8.375 L 8.96875 -8.375 L 7.46875 -4.53125 L 7.34375 -4.09375 C 7.195312 -3.726562 7.179688 -3.359375 7.296875 -2.984375 C 7.410156 -2.617188 7.613281 -2.320312 7.90625 -2.09375 C 7.957031 -2.0625 8.019531 -2.023438 8.09375 -1.984375 C 8.164062 -1.941406 8.226562 -1.894531 8.28125 -1.84375 C 8.65625 -1.582031 8.769531 -1.207031 8.625 -0.71875 C 8.476562 -0.238281 8.191406 0 7.765625 0 Z M 15.59375 -25.03125 L 10 -10.890625 L 20.84375 -10.890625 Z M 15.59375 -25.03125 "/></g></g><g style="fill:#000000;fill-opacity:1;"><g transform="translate(281.993676, 169.541869)"><path style="stroke:none" d="M 1.234375 -29.125 C 0.867188 -29.382812 0.753906 -29.753906 0.890625 -30.234375 C 1.035156 -30.710938 1.320312 -30.953125 1.75 -30.953125 L 14.984375 -30.953125 C 15.441406 -30.953125 15.738281 -30.710938 15.875 -30.234375 C 16.019531 -29.753906 15.910156 -29.382812 15.546875 -29.125 C 15.429688 -29.039062 15.304688 -28.953125 15.171875 -28.859375 C 15.046875 -28.773438 14.925781 -28.707031 14.8125 -28.65625 C 14.070312 -28.195312 13.703125 -27.570312 13.703125 -26.78125 L 13.703125 -3.84375 C 13.703125 -3.46875 13.820312 -3.160156 14.0625 -2.921875 C 14.3125 -2.679688 14.617188 -2.5625 14.984375 -2.5625 L 19.21875 -2.5625 C 20.695312 -2.5625 21.8125 -2.757812 22.5625 -3.15625 C 23.320312 -3.5625 23.898438 -4.0625 24.296875 -4.65625 C 24.691406 -5.25 25.078125 -5.832031 25.453125 -6.40625 C 25.910156 -7.113281 26.476562 -7.46875 27.15625 -7.46875 C 27.550781 -7.46875 27.882812 -7.3125 28.15625 -7 C 28.425781 -6.6875 28.503906 -6.242188 28.390625 -5.671875 C 28.285156 -4.910156 28.140625 -4.125 27.953125 -3.3125 C 27.765625 -2.5 27.597656 -1.804688 27.453125 -1.234375 C 27.367188 -0.867188 27.179688 -0.570312 26.890625 -0.34375 C 26.609375 -0.113281 26.269531 0 25.875 0 L 1.75 0 C 1.320312 0 1.035156 -0.238281 0.890625 -0.71875 C 0.753906 -1.207031 0.867188 -1.582031 1.234375 -1.84375 C 1.429688 -1.976562 1.71875 -2.144531 2.09375 -2.34375 C 2.863281 -2.75 3.25 -3.363281 3.25 -4.1875 L 3.25 -26.78125 C 3.25 -27.632812 2.863281 -28.242188 2.09375 -28.609375 C 1.71875 -28.804688 1.429688 -28.976562 1.234375 -29.125 Z M 1.234375 -29.125 "/></g></g><g style="fill:#000000;fill-opacity:1;"><g transform="translate(65.126434, 222.791865)"><path style="stroke:none" d="M 1.703125 0 C 1.285156 0 1.007812 -0.234375 0.875 -0.703125 C 0.738281 -1.179688 0.847656 -1.546875 1.203125 -1.796875 C 1.398438 -1.929688 1.679688 -2.097656 2.046875 -2.296875 C 2.796875 -2.679688 3.171875 -3.28125 3.171875 -4.09375 L 3.96875 -26.484375 C 3.882812 -27.148438 3.519531 -27.632812 2.875 -27.9375 C 2.507812 -28.132812 2.234375 -28.300781 2.046875 -28.4375 C 1.679688 -28.6875 1.566406 -29.046875 1.703125 -29.515625 C 1.847656 -29.992188 2.128906 -30.234375 2.546875 -30.234375 L 13.421875 -30.234375 C 14.234375 -30.234375 14.804688 -29.84375 15.140625 -29.0625 L 21.734375 -12.765625 L 27.734375 -29.0625 C 28.066406 -29.84375 28.632812 -30.234375 29.4375 -30.234375 L 39.53125 -30.234375 C 39.976562 -30.234375 40.273438 -29.992188 40.421875 -29.515625 C 40.578125 -29.046875 40.476562 -28.6875 40.125 -28.4375 C 40.007812 -28.351562 39.890625 -28.269531 39.765625 -28.1875 C 39.640625 -28.101562 39.507812 -28.035156 39.375 -27.984375 C 38.726562 -27.566406 38.378906 -26.992188 38.328125 -26.265625 L 39.40625 -4.09375 C 39.40625 -3.332031 39.753906 -2.71875 40.453125 -2.25 C 40.585938 -2.195312 40.71875 -2.128906 40.84375 -2.046875 C 40.96875 -1.960938 41.085938 -1.878906 41.203125 -1.796875 C 41.566406 -1.546875 41.671875 -1.179688 41.515625 -0.703125 C 41.359375 -0.234375 41.0625 0 40.625 0 L 27.734375 0 C 27.316406 0 27.035156 -0.234375 26.890625 -0.703125 C 26.753906 -1.179688 26.851562 -1.546875 27.1875 -1.796875 C 27.332031 -1.878906 27.472656 -1.960938 27.609375 -2.046875 C 27.742188 -2.128906 27.882812 -2.210938 28.03125 -2.296875 C 28.382812 -2.460938 28.660156 -2.710938 28.859375 -3.046875 C 29.054688 -3.378906 29.164062 -3.726562 29.1875 -4.09375 L 28.234375 -23.0625 L 20.4375 -1.171875 C 20.101562 -0.390625 19.546875 0 18.765625 0 L 16.8125 0 C 16 0 15.425781 -0.390625 15.09375 -1.171875 L 6.75 -23.1875 L 6.09375 -4.09375 C 6.0625 -3.726562 6.148438 -3.382812 6.359375 -3.0625 C 6.566406 -2.738281 6.835938 -2.46875 7.171875 -2.25 C 7.285156 -2.195312 7.40625 -2.128906 7.53125 -2.046875 C 7.65625 -1.960938 7.769531 -1.878906 7.875 -1.796875 C 8.238281 -1.546875 8.347656 -1.179688 8.203125 -0.703125 C 8.066406 -0.234375 7.78125 0 7.34375 0 Z M 1.703125 0 "/></g></g><g style="fill:#000000;fill-opacity:1;"><g transform="translate(113.089947, 222.791865)"><path style="stroke:none" d="M 1.953125 0 C 1.515625 0 1.222656 -0.234375 1.078125 -0.703125 C 0.941406 -1.179688 1.054688 -1.546875 1.421875 -1.796875 C 1.585938 -1.898438 1.753906 -2 1.921875 -2.09375 C 2.085938 -2.195312 2.265625 -2.304688 2.453125 -2.421875 C 3.296875 -2.835938 3.84375 -3.363281 4.09375 -4 L 13.84375 -28.15625 L 12.890625 -30.734375 C 12.773438 -31.097656 12.785156 -31.375 12.921875 -31.5625 C 13.066406 -31.757812 13.316406 -31.84375 13.671875 -31.8125 L 22.265625 -31.3125 C 22.660156 -31.289062 23.015625 -31.164062 23.328125 -30.9375 C 23.648438 -30.71875 23.867188 -30.425781 23.984375 -30.0625 L 34.28125 -4 C 34.582031 -3.28125 35.109375 -2.710938 35.859375 -2.296875 C 36.003906 -2.210938 36.144531 -2.128906 36.28125 -2.046875 C 36.414062 -1.960938 36.539062 -1.878906 36.65625 -1.796875 C 37.019531 -1.546875 37.128906 -1.179688 36.984375 -0.703125 C 36.847656 -0.234375 36.554688 0 36.109375 0 L 21.9375 0 C 21.519531 0 21.238281 -0.234375 21.09375 -0.703125 C 20.957031 -1.179688 21.070312 -1.546875 21.4375 -1.796875 C 21.550781 -1.847656 21.660156 -1.921875 21.765625 -2.015625 C 21.878906 -2.117188 21.992188 -2.210938 22.109375 -2.296875 C 22.742188 -2.847656 22.953125 -3.472656 22.734375 -4.171875 L 21.265625 -8.171875 L 8.75 -8.171875 L 7.296875 -4.421875 L 7.171875 -4 C 7.035156 -3.644531 7.019531 -3.285156 7.125 -2.921875 C 7.238281 -2.554688 7.4375 -2.265625 7.71875 -2.046875 C 7.769531 -2.015625 7.828125 -1.976562 7.890625 -1.9375 C 7.960938 -1.894531 8.03125 -1.847656 8.09375 -1.796875 C 8.445312 -1.546875 8.554688 -1.179688 8.421875 -0.703125 C 8.285156 -0.234375 8.007812 0 7.59375 0 Z M 15.21875 -24.4375 L 9.765625 -10.640625 L 20.34375 -10.640625 Z M 15.21875 -24.4375 "/></g></g><g style="fill:#000000;fill-opacity:1;"><g transform="translate(156.757623, 222.791865)"><path style="stroke:none" d="M 1.203125 -28.3125 C 0.847656 -28.5625 0.738281 -28.921875 0.875 -29.390625 C 1.007812 -29.867188 1.285156 -30.109375 1.703125 -30.109375 L 15.09375 -30.15625 C 18.9375 -30.175781 22.265625 -29.851562 25.078125 -29.1875 C 27.898438 -28.519531 30.078125 -27.519531 31.609375 -26.1875 C 33.140625 -24.851562 33.90625 -23.1875 33.90625 -21.1875 C 33.90625 -19.320312 33.21875 -17.753906 31.84375 -16.484375 C 30.46875 -15.222656 28.539062 -14.242188 26.0625 -13.546875 C 26.875 -13.410156 27.695312 -12.945312 28.53125 -12.15625 C 29.363281 -11.363281 30.082031 -10.1875 30.6875 -8.625 L 33.078125 -3.625 C 33.429688 -2.875 34 -2.359375 34.78125 -2.078125 C 34.976562 -1.992188 35.171875 -1.898438 35.359375 -1.796875 C 35.722656 -1.546875 35.832031 -1.179688 35.6875 -0.703125 C 35.550781 -0.234375 35.265625 0 34.828125 0 L 20.515625 0 C 20.066406 0 19.773438 -0.234375 19.640625 -0.703125 C 19.503906 -1.179688 19.613281 -1.546875 19.96875 -1.796875 C 20.082031 -1.878906 20.207031 -1.953125 20.34375 -2.015625 C 20.488281 -2.085938 20.613281 -2.164062 20.71875 -2.25 C 21.476562 -2.613281 21.691406 -3.1875 21.359375 -3.96875 L 21.234375 -4.21875 L 21.265625 -4.21875 L 19.9375 -7.34375 C 19.289062 -8.8125 18.660156 -9.898438 18.046875 -10.609375 C 17.441406 -11.316406 16.832031 -11.789062 16.21875 -12.03125 C 15.613281 -12.269531 14.960938 -12.390625 14.265625 -12.390625 L 13.390625 -12.390625 L 13.390625 -4.09375 C 13.390625 -3.3125 13.75 -2.695312 14.46875 -2.25 C 14.601562 -2.195312 14.726562 -2.128906 14.84375 -2.046875 C 14.957031 -1.960938 15.070312 -1.878906 15.1875 -1.796875 C 15.539062 -1.546875 15.648438 -1.179688 15.515625 -0.703125 C 15.378906 -0.234375 15.085938 0 14.640625 0 L 1.75 0 C 1.300781 0 1.007812 -0.234375 0.875 -0.703125 C 0.738281 -1.179688 0.847656 -1.546875 1.203125 -1.796875 C 1.316406 -1.878906 1.445312 -1.960938 1.59375 -2.046875 C 1.75 -2.128906 1.898438 -2.210938 2.046875 -2.296875 C 2.347656 -2.429688 2.601562 -2.648438 2.8125 -2.953125 C 3.019531 -3.265625 3.140625 -3.585938 3.171875 -3.921875 L 3.171875 -26.015625 C 3.171875 -26.828125 2.796875 -27.441406 2.046875 -27.859375 C 1.878906 -27.941406 1.722656 -28.023438 1.578125 -28.109375 C 1.441406 -28.191406 1.316406 -28.257812 1.203125 -28.3125 Z M 13.390625 -26.359375 L 13.390625 -16.140625 C 13.390625 -15.773438 13.503906 -15.472656 13.734375 -15.234375 C 13.972656 -15.003906 14.273438 -14.890625 14.640625 -14.890625 C 17.722656 -14.890625 20 -15.378906 21.46875 -16.359375 C 22.945312 -17.347656 23.6875 -18.941406 23.6875 -21.140625 C 23.6875 -23.367188 22.960938 -25.003906 21.515625 -26.046875 C 20.066406 -27.085938 17.773438 -27.625 14.640625 -27.65625 C 14.273438 -27.65625 13.972656 -27.535156 13.734375 -27.296875 C 13.503906 -27.054688 13.390625 -26.742188 13.390625 -26.359375 Z M 13.390625 -26.359375 "/></g></g><g style="fill:#000000;fill-opacity:1;"><g transform="translate(199.340914, 222.791865)"><path style="stroke:none" d="M 1.703125 0 C 1.285156 0 1.007812 -0.234375 0.875 -0.703125 C 0.738281 -1.179688 0.847656 -1.546875 1.203125 -1.796875 C 1.398438 -1.929688 1.679688 -2.097656 2.046875 -2.296875 C 2.796875 -2.679688 3.171875 -3.28125 3.171875 -4.09375 L 3.171875 -26.140625 C 3.171875 -26.984375 2.796875 -27.582031 2.046875 -27.9375 C 1.679688 -28.132812 1.398438 -28.300781 1.203125 -28.4375 C 0.847656 -28.6875 0.738281 -29.046875 0.875 -29.515625 C 1.007812 -29.992188 1.285156 -30.234375 1.703125 -30.234375 L 14.640625 -30.234375 C 15.085938 -30.234375 15.378906 -29.992188 15.515625 -29.515625 C 15.648438 -29.046875 15.539062 -28.6875 15.1875 -28.4375 C 15.070312 -28.351562 14.953125 -28.269531 14.828125 -28.1875 C 14.703125 -28.101562 14.582031 -28.035156 14.46875 -27.984375 C 13.75 -27.535156 13.390625 -26.921875 13.390625 -26.140625 L 13.390625 -16.96875 L 25.265625 -26.640625 C 25.828125 -27.117188 25.828125 -27.632812 25.265625 -28.1875 C 25.210938 -28.25 25.15625 -28.300781 25.09375 -28.34375 C 25.039062 -28.382812 24.972656 -28.429688 24.890625 -28.484375 C 24.554688 -28.703125 24.457031 -29.046875 24.59375 -29.515625 C 24.738281 -29.992188 25.019531 -30.234375 25.4375 -30.234375 L 31.78125 -30.234375 C 32.195312 -30.234375 32.476562 -29.992188 32.625 -29.515625 C 32.78125 -29.046875 32.675781 -28.703125 32.3125 -28.484375 C 32.144531 -28.367188 31.960938 -28.265625 31.765625 -28.171875 C 31.578125 -28.078125 31.375 -27.988281 31.15625 -27.90625 C 30.84375 -27.757812 30.492188 -27.566406 30.109375 -27.328125 C 29.722656 -27.097656 29.375 -26.859375 29.0625 -26.609375 L 23.515625 -21.9375 L 33.234375 -3.75 C 33.628906 -3.03125 34.1875 -2.488281 34.90625 -2.125 C 35.019531 -2.09375 35.125 -2.039062 35.21875 -1.96875 C 35.3125 -1.90625 35.414062 -1.847656 35.53125 -1.796875 C 35.894531 -1.546875 36.003906 -1.179688 35.859375 -0.703125 C 35.722656 -0.234375 35.429688 0 34.984375 0 L 20.515625 0 C 20.066406 0 19.773438 -0.234375 19.640625 -0.703125 C 19.503906 -1.179688 19.613281 -1.546875 19.96875 -1.796875 C 20.082031 -1.847656 20.203125 -1.914062 20.328125 -2 C 20.453125 -2.082031 20.570312 -2.148438 20.6875 -2.203125 C 21.4375 -2.617188 21.628906 -3.175781 21.265625 -3.875 L 15.71875 -15.390625 L 13.390625 -13.421875 L 13.390625 -4.09375 C 13.390625 -3.3125 13.75 -2.695312 14.46875 -2.25 C 14.582031 -2.195312 14.703125 -2.128906 14.828125 -2.046875 C 14.953125 -1.960938 15.070312 -1.878906 15.1875 -1.796875 C 15.539062 -1.546875 15.648438 -1.179688 15.515625 -0.703125 C 15.378906 -0.234375 15.085938 0 14.640625 0 Z M 1.703125 0 "/></g></g><g style="fill:#000000;fill-opacity:1;"><g transform="translate(240.839821, 222.791865)"><path style="stroke:none" d="M 1.203125 -28.359375 C 0.847656 -28.609375 0.738281 -28.96875 0.875 -29.4375 C 1.007812 -29.914062 1.285156 -30.15625 1.703125 -30.15625 L 25.640625 -30.15625 C 26.035156 -30.15625 26.378906 -30.039062 26.671875 -29.8125 C 26.960938 -29.59375 27.148438 -29.289062 27.234375 -28.90625 C 27.367188 -28.34375 27.523438 -27.671875 27.703125 -26.890625 C 27.890625 -26.117188 28.039062 -25.359375 28.15625 -24.609375 C 28.238281 -24.023438 28.144531 -23.585938 27.875 -23.296875 C 27.613281 -23.003906 27.289062 -22.859375 26.90625 -22.859375 C 26.289062 -22.859375 25.742188 -23.191406 25.265625 -23.859375 C 24.910156 -24.441406 24.535156 -25.023438 24.140625 -25.609375 C 23.753906 -26.191406 23.191406 -26.675781 22.453125 -27.0625 C 21.722656 -27.457031 20.632812 -27.65625 19.1875 -27.65625 L 14.640625 -27.65625 C 14.273438 -27.65625 13.972656 -27.539062 13.734375 -27.3125 C 13.503906 -27.09375 13.390625 -26.785156 13.390625 -26.390625 L 13.390625 -16.890625 L 16.390625 -16.890625 C 17.472656 -16.890625 18.304688 -17.003906 18.890625 -17.234375 C 19.472656 -17.472656 19.894531 -17.773438 20.15625 -18.140625 C 20.425781 -18.503906 20.625 -18.863281 20.75 -19.21875 C 20.875 -19.582031 21.023438 -19.890625 21.203125 -20.140625 C 21.390625 -20.390625 21.675781 -20.53125 22.0625 -20.5625 C 22.507812 -20.582031 22.859375 -20.257812 23.109375 -19.59375 C 23.359375 -18.925781 23.507812 -18.109375 23.5625 -17.140625 C 23.613281 -16.171875 23.59375 -15.203125 23.5 -14.234375 C 23.40625 -13.273438 23.21875 -12.476562 22.9375 -11.84375 C 22.65625 -11.207031 22.296875 -10.898438 21.859375 -10.921875 C 21.460938 -10.953125 21.195312 -11.09375 21.0625 -11.34375 C 20.925781 -11.59375 20.800781 -11.890625 20.6875 -12.234375 C 20.570312 -12.585938 20.378906 -12.929688 20.109375 -13.265625 C 19.847656 -13.597656 19.429688 -13.875 18.859375 -14.09375 C 18.296875 -14.3125 17.472656 -14.421875 16.390625 -14.421875 L 13.390625 -14.421875 L 13.390625 -3.75 C 13.390625 -3.394531 13.503906 -3.097656 13.734375 -2.859375 C 13.972656 -2.617188 14.273438 -2.5 14.640625 -2.5 L 20.015625 -2.5 C 21.460938 -2.5 22.550781 -2.691406 23.28125 -3.078125 C 24.019531 -3.472656 24.582031 -3.960938 24.96875 -4.546875 C 25.363281 -5.128906 25.742188 -5.695312 26.109375 -6.25 C 26.554688 -6.945312 27.113281 -7.296875 27.78125 -7.296875 C 28.164062 -7.296875 28.488281 -7.140625 28.75 -6.828125 C 29.019531 -6.523438 29.097656 -6.097656 28.984375 -5.546875 C 28.867188 -4.796875 28.722656 -4.023438 28.546875 -3.234375 C 28.367188 -2.441406 28.207031 -1.765625 28.0625 -1.203125 C 27.976562 -0.847656 27.796875 -0.554688 27.515625 -0.328125 C 27.242188 -0.109375 26.910156 0 26.515625 0 L 1.703125 0 C 1.285156 0 1.007812 -0.234375 0.875 -0.703125 C 0.738281 -1.179688 0.847656 -1.546875 1.203125 -1.796875 C 1.398438 -1.929688 1.679688 -2.097656 2.046875 -2.296875 C 2.796875 -2.679688 3.171875 -3.28125 3.171875 -4.09375 L 3.171875 -26.0625 C 3.171875 -26.894531 2.796875 -27.492188 2.046875 -27.859375 C 1.679688 -28.054688 1.398438 -28.222656 1.203125 -28.359375 Z M 1.203125 -28.359375 "/></g></g><g style="fill:#000000;fill-opacity:1;"><g transform="translate(277.208742, 222.791865)"><path style="stroke:none" d="M 3.96875 -23.9375 C 3.519531 -23.269531 2.960938 -22.9375 2.296875 -22.9375 C 1.898438 -22.9375 1.570312 -23.082031 1.3125 -23.375 C 1.050781 -23.664062 0.972656 -24.101562 1.078125 -24.6875 C 1.191406 -25.40625 1.335938 -26.160156 1.515625 -26.953125 C 1.703125 -27.753906 1.863281 -28.429688 2 -28.984375 C 2.082031 -29.367188 2.269531 -29.664062 2.5625 -29.875 C 2.851562 -30.082031 3.179688 -30.1875 3.546875 -30.1875 L 29.234375 -30.1875 C 30.066406 -30.1875 30.59375 -29.785156 30.8125 -28.984375 C 30.957031 -28.429688 31.113281 -27.753906 31.28125 -26.953125 C 31.445312 -26.160156 31.582031 -25.40625 31.6875 -24.6875 C 31.800781 -24.101562 31.722656 -23.664062 31.453125 -23.375 C 31.191406 -23.082031 30.867188 -22.9375 30.484375 -22.9375 C 29.847656 -22.9375 29.289062 -23.269531 28.8125 -23.9375 C 28.457031 -24.519531 28.09375 -25.101562 27.71875 -25.6875 C 27.34375 -26.269531 26.773438 -26.753906 26.015625 -27.140625 C 25.265625 -27.535156 24.171875 -27.734375 22.734375 -27.734375 L 21.515625 -27.734375 L 21.515625 -4.09375 C 21.515625 -3.332031 21.863281 -2.71875 22.5625 -2.25 C 22.695312 -2.195312 22.828125 -2.128906 22.953125 -2.046875 C 23.078125 -1.960938 23.195312 -1.878906 23.3125 -1.796875 C 23.675781 -1.546875 23.78125 -1.179688 23.625 -0.703125 C 23.46875 -0.234375 23.171875 0 22.734375 0 L 9.84375 0 C 9.425781 0 9.144531 -0.234375 9 -0.703125 C 8.863281 -1.179688 8.960938 -1.546875 9.296875 -1.796875 C 9.441406 -1.878906 9.582031 -1.960938 9.71875 -2.046875 C 9.851562 -2.128906 9.992188 -2.210938 10.140625 -2.296875 C 10.492188 -2.460938 10.769531 -2.710938 10.96875 -3.046875 C 11.164062 -3.378906 11.273438 -3.726562 11.296875 -4.09375 L 11.296875 -27.734375 L 10.046875 -27.734375 C 8.597656 -27.734375 7.503906 -27.535156 6.765625 -27.140625 C 6.035156 -26.753906 5.484375 -26.269531 5.109375 -25.6875 C 4.734375 -25.101562 4.351562 -24.519531 3.96875 -23.9375 Z M 3.96875 -23.9375 "/></g></g><g style="fill:#000000;fill-opacity:1;"><g transform="translate(90.184429, 287.713805)"><path style="stroke:none" d="M 4.234375 -10.625 L 0.0625 -10.625 L 0.0625 -12.140625 L 10.109375 -12.140625 L 10.109375 -10.625 L 5.953125 -10.625 L 5.953125 0 L 4.234375 0 Z M 4.234375 -10.625 "/></g></g><g style="fill:#000000;fill-opacity:1;"><g transform="translate(105.816601, 287.713805)"><path style="stroke:none" d="M 1.828125 -12.140625 L 3.5625 -12.140625 L 3.5625 0 L 1.828125 0 Z M 1.828125 -12.140625 "/></g></g><g style="fill:#000000;fill-opacity:1;"><g transform="translate(116.643205, 287.713805)"><path style="stroke:none" d="M 10.625 -1.515625 L 10.625 0 L 1.828125 0 L 1.828125 -12.140625 L 10.390625 -12.140625 L 10.390625 -10.625 L 3.5625 -10.625 L 3.5625 -6.90625 L 9.640625 -6.90625 L 9.640625 -5.421875 L 3.5625 -5.421875 L 3.5625 -1.515625 Z M 10.625 -1.515625 "/></g></g><g style="fill:#000000;fill-opacity:1;"><g transform="translate(133.715311, 287.713805)"><path style="stroke:none" d="M 12.265625 -12.140625 L 12.265625 0 L 10.84375 0 L 3.5625 -9.046875 L 3.5625 0 L 1.828125 0 L 1.828125 -12.140625 L 3.25 -12.140625 L 10.53125 -3.09375 L 10.53125 -12.140625 Z M 12.265625 -12.140625 "/></g></g><g style="fill:#000000;fill-opacity:1;"><g transform="translate(153.250925, 287.713805)"><path style="stroke:none" d="M 1.828125 -12.140625 L 6.9375 -12.140625 C 8.21875 -12.140625 9.351562 -11.882812 10.34375 -11.375 C 11.34375 -10.863281 12.117188 -10.148438 12.671875 -9.234375 C 13.222656 -8.316406 13.5 -7.265625 13.5 -6.078125 C 13.5 -4.878906 13.222656 -3.820312 12.671875 -2.90625 C 12.117188 -1.988281 11.34375 -1.273438 10.34375 -0.765625 C 9.351562 -0.253906 8.21875 0 6.9375 0 L 1.828125 0 Z M 6.828125 -1.515625 C 7.816406 -1.515625 8.679688 -1.703125 9.421875 -2.078125 C 10.171875 -2.460938 10.75 -3 11.15625 -3.6875 C 11.5625 -4.375 11.765625 -5.171875 11.765625 -6.078125 C 11.765625 -6.972656 11.5625 -7.765625 11.15625 -8.453125 C 10.75 -9.140625 10.171875 -9.671875 9.421875 -10.046875 C 8.679688 -10.429688 7.816406 -10.625 6.828125 -10.625 L 3.5625 -10.625 L 3.5625 -1.515625 Z M 6.828125 -1.515625 "/></g></g><g style="fill:#000000;fill-opacity:1;"><g transform="translate(173.029423, 287.713805)"><path style="stroke:none" d="M 9.5625 -3.03125 L 3.109375 -3.03125 L 1.765625 0 L -0.015625 0 L 5.484375 -12.140625 L 7.203125 -12.140625 L 12.71875 0 L 10.890625 0 Z M 8.953125 -4.421875 L 6.328125 -10.375 L 3.71875 -4.421875 Z M 8.953125 -4.421875 "/></g></g><g style="fill:#000000;fill-opacity:1;"><g transform="translate(191.177143, 287.713805)"><path style="stroke:none" d=""/></g></g><g style="fill:#000000;fill-opacity:1;"><g transform="translate(201.292454, 287.713805)"><path style="stroke:none" d="M 7.296875 0.140625 C 6.078125 0.140625 4.972656 -0.125 3.984375 -0.65625 C 3.003906 -1.195312 2.234375 -1.941406 1.671875 -2.890625 C 1.109375 -3.835938 0.828125 -4.898438 0.828125 -6.078125 C 0.828125 -7.242188 1.109375 -8.300781 1.671875 -9.25 C 2.234375 -10.195312 3.003906 -10.9375 3.984375 -11.46875 C 4.972656 -12.007812 6.078125 -12.28125 7.296875 -12.28125 C 8.515625 -12.28125 9.613281 -12.007812 10.59375 -11.46875 C 11.582031 -10.9375 12.351562 -10.195312 12.90625 -9.25 C 13.457031 -8.3125 13.734375 -7.253906 13.734375 -6.078125 C 13.734375 -4.890625 13.457031 -3.820312 12.90625 -2.875 C 12.351562 -1.9375 11.582031 -1.195312 10.59375 -0.65625 C 9.613281 -0.125 8.515625 0.140625 7.296875 0.140625 Z M 7.296875 -1.40625 C 8.191406 -1.40625 8.992188 -1.609375 9.703125 -2.015625 C 10.410156 -2.421875 10.96875 -2.976562 11.375 -3.6875 C 11.789062 -4.394531 12 -5.191406 12 -6.078125 C 12 -6.953125 11.789062 -7.742188 11.375 -8.453125 C 10.96875 -9.160156 10.410156 -9.71875 9.703125 -10.125 C 8.992188 -10.53125 8.191406 -10.734375 7.296875 -10.734375 C 6.410156 -10.734375 5.601562 -10.53125 4.875 -10.125 C 4.15625 -9.71875 3.585938 -9.160156 3.171875 -8.453125 C 2.765625 -7.742188 2.5625 -6.953125 2.5625 -6.078125 C 2.5625 -5.191406 2.765625 -4.394531 3.171875 -3.6875 C 3.585938 -2.976562 4.15625 -2.421875 4.875 -2.015625 C 5.601562 -1.609375 6.410156 -1.40625 7.296875 -1.40625 Z M 7.296875 -1.40625 "/></g></g><g style="fill:#000000;fill-opacity:1;"><g transform="translate(221.313826, 287.713805)"><path style="stroke:none" d="M 12.265625 -12.140625 L 12.265625 0 L 10.84375 0 L 3.5625 -9.046875 L 3.5625 0 L 1.828125 0 L 1.828125 -12.140625 L 3.25 -12.140625 L 10.53125 -3.09375 L 10.53125 -12.140625 Z M 12.265625 -12.140625 "/></g></g><g style="fill:#000000;fill-opacity:1;"><g transform="translate(240.84944, 287.713805)"><path style="stroke:none" d="M 1.828125 -12.140625 L 3.5625 -12.140625 L 3.5625 -1.515625 L 10.125 -1.515625 L 10.125 0 L 1.828125 0 Z M 1.828125 -12.140625 "/></g></g><g style="fill:#000000;fill-opacity:1;"><g transform="translate(256.60305, 287.713805)"><path style="stroke:none" d="M 1.828125 -12.140625 L 3.5625 -12.140625 L 3.5625 0 L 1.828125 0 Z M 1.828125 -12.140625 "/></g></g><g style="fill:#000000;fill-opacity:1;"><g transform="translate(267.429653, 287.713805)"><path style="stroke:none" d="M 12.265625 -12.140625 L 12.265625 0 L 10.84375 0 L 3.5625 -9.046875 L 3.5625 0 L 1.828125 0 L 1.828125 -12.140625 L 3.25 -12.140625 L 10.53125 -3.09375 L 10.53125 -12.140625 Z M 12.265625 -12.140625 "/></g></g><g style="fill:#000000;fill-opacity:1;"><g transform="translate(286.965267, 287.713805)"><path style="stroke:none" d="M 10.625 -1.515625 L 10.625 0 L 1.828125 0 L 1.828125 -12.140625 L 10.390625 -12.140625 L 10.390625 -10.625 L 3.5625 -10.625 L 3.5625 -6.90625 L 9.640625 -6.90625 L 9.640625 -5.421875 L 3.5625 -5.421875 L 3.5625 -1.515625 Z M 10.625 -1.515625 "/></g></g><g clip-rule="nonzero" clip-path="url(#84d475d67b)"><path style=" stroke:none;fill-rule:nonzero;fill:#020202;fill-opacity:1;" d="M 268.199219 267.339844 L 106.539062 267.339844 L 106.539062 117.445312 C 106.539062 72.851562 142.800781 36.59375 187.390625 36.59375 C 231.984375 36.59375 268.242188 72.851562 268.242188 117.445312 L 268.242188 267.339844 Z M 108.371094 265.507812 L 266.367188 265.507812 L 266.367188 117.445312 C 266.367188 73.859375 230.929688 38.425781 187.390625 38.425781 C 143.804688 38.425781 108.371094 73.859375 108.371094 117.445312 Z M 108.371094 265.507812 "/></g><g clip-rule="nonzero" clip-path="url(#8d15cb1b23)"><path style=" stroke:none;fill-rule:nonzero;fill:#020202;fill-opacity:1;" d="M 106.796875 85.691406 L 268.457031 85.691406 L 268.457031 235.585938 C 268.457031 280.179688 232.199219 316.4375 187.605469 316.4375 C 143.011719 316.4375 106.753906 280.179688 106.753906 235.585938 L 106.753906 85.691406 Z M 266.625 87.523438 L 108.628906 87.523438 L 108.628906 235.585938 C 108.628906 279.171875 144.066406 314.605469 187.605469 314.605469 C 231.191406 314.605469 266.625 279.171875 266.625 235.585938 Z M 266.625 87.523438 "/></g></g></svg>