<svg xmlns="http://www.w3.org/2000/svg" xmlns:xlink="http://www.w3.org/1999/xlink" width="500" zoomAndPan="magnify" viewBox="0 0 375 374.999991" height="500" preserveAspectRatio="xMidYMid meet" version="1.2"><defs><clipPath id="d55fb5d2cd"><path d="M 17.496094 29.070312 L 357.246094 29.070312 L 357.246094 368.820312 L 17.496094 368.820312 Z M 17.496094 29.070312 "/></clipPath><clipPath id="7c497a4349"><path d="M 187.371094 29.070312 C 93.550781 29.070312 17.496094 105.125 17.496094 198.945312 C 17.496094 292.765625 93.550781 368.820312 187.371094 368.820312 C 281.191406 368.820312 357.246094 292.765625 357.246094 198.945312 C 357.246094 105.125 281.191406 29.070312 187.371094 29.070312 Z M 187.371094 29.070312 "/></clipPath><clipPath id="29ccc6ff2b"><path d="M 52.5625 64.136719 L 322.433594 64.136719 L 322.433594 334.007812 L 52.5625 334.007812 Z M 52.5625 64.136719 "/></clipPath><clipPath id="69a8227fe3"><path d="M 187.496094 64.136719 C 112.976562 64.136719 52.5625 124.546875 52.5625 199.070312 C 52.5625 273.59375 112.976562 334.007812 187.496094 334.007812 C 262.019531 334.007812 322.433594 273.59375 322.433594 199.070312 C 322.433594 124.546875 262.019531 64.136719 187.496094 64.136719 Z M 187.496094 64.136719 "/></clipPath></defs><g id="0602841079"><rect x="0" width="375" y="0" height="374.999991" style="fill:#ffffff;fill-opacity:1;stroke:none;"/><rect x="0" width="375" y="0" height="374.999991" style="fill:#faf7f5;fill-opacity:1;stroke:none;"/><g clip-rule="nonzero" clip-path="url(#d55fb5d2cd)"><g clip-rule="nonzero" clip-path="url(#7c497a4349)"><path style="fill:none;stroke-width:2;stroke-linecap:butt;stroke-linejoin:miter;stroke:#000000;stroke-opacity:1;stroke-miterlimit:4;" d="M 226.663568 0.00121849 C 101.479193 0.00121849 -0.000522406 101.480933 -0.000522406 226.665309 C -0.000522406 351.849685 101.479193 453.3294 226.663568 453.3294 C 351.847944 453.3294 453.327659 351.849685 453.327659 226.665309 C 453.327659 101.480933 351.847944 0.00121849 226.663568 0.00121849 Z M 226.663568 0.00121849 " transform="matrix(0.749457,0,0,0.749457,17.496485,29.069399)"/></g></g><g clip-rule="nonzero" clip-path="url(#29ccc6ff2b)"><g clip-rule="nonzero" clip-path="url(#69a8227fe3)"><path style="fill:none;stroke-width:2;stroke-linecap:butt;stroke-linejoin:miter;stroke:#000000;stroke-opacity:1;stroke-miterlimit:4;" d="M 179.911823 0.00209462 C 80.552441 0.00209462 0.000352735 80.548975 0.000352735 179.913565 C 0.000352735 279.278155 80.552441 359.830243 179.911823 359.830243 C 279.276413 359.830243 359.828501 279.278155 359.828501 179.913565 C 359.828501 80.548975 279.276413 0.00209462 179.911823 0.00209462 Z M 179.911823 0.00209462 " transform="matrix(0.75,0,0,0.75,52.562235,64.135148)"/></g></g><path style=" stroke:none;fill-rule:nonzero;fill:#faf7f5;fill-opacity:1;" d="M 70.046875 244.746094 L 70.046875 152.59375 C 70.046875 141.894531 78.71875 133.222656 89.421875 133.222656 L 285.558594 133.222656 C 296.257812 133.222656 304.933594 141.894531 304.933594 152.59375 L 304.933594 244.746094 C 304.933594 255.449219 296.257812 264.121094 285.558594 264.121094 L 89.421875 264.121094 C 78.71875 264.121094 70.046875 255.449219 70.046875 244.746094 Z M 70.046875 244.746094 "/><g style="fill:#191919;fill-opacity:1;"><g transform="translate(87.119575, 194.221322)"><path style="stroke:none" d="M 19.21875 -40.171875 C 26.644531 -40.171875 32.289062 -38.503906 36.15625 -35.171875 C 40.019531 -31.847656 41.953125 -27.164062 41.953125 -21.125 C 41.953125 -16.601562 40.914062 -12.765625 38.84375 -9.609375 C 36.78125 -6.453125 33.953125 -4.0625 30.359375 -2.4375 C 26.765625 -0.8125 22.671875 0 18.078125 0 L 0.859375 0 L 0.859375 -0.28125 C 2.046875 -0.707031 3.066406 -1.242188 3.921875 -1.890625 C 4.785156 -2.546875 5.21875 -3.390625 5.21875 -4.421875 L 5.21875 -36.90625 C 5.21875 -37.9375 4.785156 -38.648438 3.921875 -39.046875 C 3.066406 -39.453125 2.046875 -39.734375 0.859375 -39.890625 L 0.859375 -40.171875 Z M 21 -1.03125 C 23.53125 -1.03125 25.738281 -1.535156 27.625 -2.546875 C 29.519531 -3.566406 30.992188 -5.300781 32.046875 -7.75 C 33.097656 -10.195312 33.625 -13.582031 33.625 -17.90625 C 33.625 -22.15625 33.039062 -25.875 31.875 -29.0625 C 30.707031 -32.257812 28.890625 -34.753906 26.421875 -36.546875 C 23.960938 -38.347656 20.800781 -39.25 16.9375 -39.25 L 13.078125 -39.25 L 13.078125 -2.640625 C 14.191406 -2.140625 15.40625 -1.742188 16.71875 -1.453125 C 18.039062 -1.171875 19.46875 -1.03125 21 -1.03125 Z M 21 -1.03125 "/></g></g><g style="fill:#191919;fill-opacity:1;"><g transform="translate(134.232734, 194.221322)"><path style="stroke:none" d="M 7.453125 -32.375 C 6.273438 -32.375 5.28125 -32.785156 4.46875 -33.609375 C 3.664062 -34.429688 3.265625 -35.429688 3.265625 -36.609375 C 3.265625 -37.796875 3.664062 -38.789062 4.46875 -39.59375 C 5.28125 -40.40625 6.273438 -40.8125 7.453125 -40.8125 C 8.640625 -40.8125 9.632812 -40.40625 10.4375 -39.59375 C 11.25 -38.789062 11.65625 -37.796875 11.65625 -36.609375 C 11.65625 -35.429688 11.25 -34.429688 10.4375 -33.609375 C 9.632812 -32.785156 8.640625 -32.375 7.453125 -32.375 Z M 3.734375 0 L 4.078125 -3.953125 L 4.078125 -26 C 3.691406 -26.269531 3.160156 -26.5 2.484375 -26.6875 C 1.816406 -26.875 1.179688 -26.988281 0.578125 -27.03125 L 0.578125 -27.265625 L 11.65625 -28.125 L 11.359375 -23.875 L 11.359375 -5.34375 C 11.359375 -3.8125 11.519531 -2.679688 11.84375 -1.953125 C 12.175781 -1.222656 12.765625 -0.570312 13.609375 0 Z M 3.734375 0 "/></g></g><g style="fill:#191919;fill-opacity:1;"><g transform="translate(152.424068, 194.221322)"><path style="stroke:none" d="M 20.3125 -28.171875 C 22.15625 -28.171875 24.039062 -28 25.96875 -27.65625 C 27.90625 -27.3125 29.789062 -26.78125 31.625 -26.0625 L 31.625 2.40625 C 31.625 3.0625 31.222656 3.804688 30.421875 4.640625 C 29.617188 5.484375 28.554688 6.335938 27.234375 7.203125 C 25.910156 8.066406 24.460938 8.859375 22.890625 9.578125 C 21.328125 10.304688 19.75 10.890625 18.15625 11.328125 C 16.570312 11.773438 15.128906 12 13.828125 12 C 12.835938 12 11.757812 11.832031 10.59375 11.5 C 9.425781 11.175781 8.316406 10.628906 7.265625 9.859375 C 6.210938 9.097656 5.300781 8.050781 4.53125 6.71875 L 11.3125 4.703125 C 12.113281 6.347656 12.953125 7.550781 13.828125 8.3125 C 14.710938 9.082031 15.582031 9.5625 16.4375 9.75 C 17.300781 9.945312 18.054688 10.046875 18.703125 10.046875 C 20.234375 10.046875 21.550781 9.410156 22.65625 8.140625 C 23.769531 6.878906 24.328125 5.140625 24.328125 2.921875 L 24.328125 -2.015625 C 23.378906 -1.285156 22.203125 -0.695312 20.796875 -0.25 C 19.398438 0.1875 17.84375 0.40625 16.125 0.40625 C 13.332031 0.40625 10.898438 -0.128906 8.828125 -1.203125 C 6.765625 -2.273438 5.160156 -3.796875 4.015625 -5.765625 C 2.867188 -7.734375 2.296875 -10.039062 2.296875 -12.6875 C 2.296875 -15.476562 2.953125 -18.050781 4.265625 -20.40625 C 5.585938 -22.757812 7.578125 -24.640625 10.234375 -26.046875 C 12.898438 -27.460938 16.257812 -28.171875 20.3125 -28.171875 Z M 19.75 -1.375 C 21.65625 -1.375 23.179688 -2.046875 24.328125 -3.390625 L 24.328125 -23.984375 C 23.453125 -24.984375 22.476562 -25.75 21.40625 -26.28125 C 20.332031 -26.820312 19.109375 -27.09375 17.734375 -27.09375 C 15.054688 -27.09375 13.023438 -26.078125 11.640625 -24.046875 C 10.265625 -22.015625 9.578125 -19.335938 9.578125 -16.015625 C 9.578125 -13.253906 10.015625 -10.765625 10.890625 -8.546875 C 11.773438 -6.328125 12.992188 -4.578125 14.546875 -3.296875 C 16.097656 -2.015625 17.832031 -1.375 19.75 -1.375 Z M 19.75 -1.375 "/></g></g><g style="fill:#191919;fill-opacity:1;"><g transform="translate(190.068771, 194.221322)"><path style="stroke:none" d="M 7.453125 -32.375 C 6.273438 -32.375 5.28125 -32.785156 4.46875 -33.609375 C 3.664062 -34.429688 3.265625 -35.429688 3.265625 -36.609375 C 3.265625 -37.796875 3.664062 -38.789062 4.46875 -39.59375 C 5.28125 -40.40625 6.273438 -40.8125 7.453125 -40.8125 C 8.640625 -40.8125 9.632812 -40.40625 10.4375 -39.59375 C 11.25 -38.789062 11.65625 -37.796875 11.65625 -36.609375 C 11.65625 -35.429688 11.25 -34.429688 10.4375 -33.609375 C 9.632812 -32.785156 8.640625 -32.375 7.453125 -32.375 Z M 3.734375 0 L 4.078125 -3.953125 L 4.078125 -26 C 3.691406 -26.269531 3.160156 -26.5 2.484375 -26.6875 C 1.816406 -26.875 1.179688 -26.988281 0.578125 -27.03125 L 0.578125 -27.265625 L 11.65625 -28.125 L 11.359375 -23.875 L 11.359375 -5.34375 C 11.359375 -3.8125 11.519531 -2.679688 11.84375 -1.953125 C 12.175781 -1.222656 12.765625 -0.570312 13.609375 0 Z M 3.734375 0 "/></g></g><g style="fill:#191919;fill-opacity:1;"><g transform="translate(208.260106, 194.221322)"><path style="stroke:none" d="M 11.140625 0.921875 L 4.875 -0.515625 L 5.046875 -3.953125 L 5.046875 -30.703125 C 5.046875 -31.929688 4.632812 -32.535156 3.8125 -32.515625 C 2.988281 -32.492188 1.625 -32.210938 -0.28125 -31.671875 L -0.28125 -32.03125 L 12.796875 -38.109375 L 12.34375 -35.46875 L 12.34375 -27.828125 L 19.390625 -27.828125 L 19.109375 -26.453125 L 12.34375 -26.453125 L 12.34375 -1.03125 L 20.265625 -1.265625 L 20.265625 -1.03125 L 12.34375 0.921875 Z M 11.140625 0.921875 "/></g></g><g style="fill:#191919;fill-opacity:1;"><g transform="translate(232.821126, 194.221322)"><path style="stroke:none" d="M 31.625 -4.703125 C 31.625 -3.171875 31.785156 -2.0625 32.109375 -1.375 C 32.429688 -0.6875 33.015625 -0.0546875 33.859375 0.515625 L 33.859375 0.6875 L 22.90625 -1.09375 C 22.90625 -1.09375 22.910156 -1.09375 22.921875 -1.09375 C 22.941406 -1.09375 22.953125 -1.109375 22.953125 -1.140625 C 22.035156 -0.648438 21.003906 -0.269531 19.859375 0 C 18.710938 0.269531 17.46875 0.40625 16.125 0.40625 C 13.332031 0.40625 10.898438 -0.128906 8.828125 -1.203125 C 6.765625 -2.273438 5.160156 -3.796875 4.015625 -5.765625 C 2.867188 -7.734375 2.296875 -10.039062 2.296875 -12.6875 C 2.296875 -15.476562 2.953125 -18.050781 4.265625 -20.40625 C 5.585938 -22.757812 7.578125 -24.640625 10.234375 -26.046875 C 12.898438 -27.460938 16.257812 -28.171875 20.3125 -28.171875 C 22.15625 -28.171875 24.039062 -28 25.96875 -27.65625 C 27.90625 -27.3125 29.789062 -26.78125 31.625 -26.0625 Z M 9.578125 -16.015625 C 9.578125 -13.253906 10.015625 -10.773438 10.890625 -8.578125 C 11.773438 -6.378906 12.992188 -4.640625 14.546875 -3.359375 C 16.097656 -2.078125 17.832031 -1.4375 19.75 -1.4375 C 21.539062 -1.4375 23.03125 -2.085938 24.21875 -3.390625 C 24.257812 -3.691406 24.285156 -4.003906 24.296875 -4.328125 C 24.316406 -4.660156 24.328125 -5.035156 24.328125 -5.453125 L 24.328125 -23.984375 C 23.453125 -24.984375 22.476562 -25.75 21.40625 -26.28125 C 20.332031 -26.820312 19.109375 -27.09375 17.734375 -27.09375 C 15.054688 -27.09375 13.023438 -26.078125 11.640625 -24.046875 C 10.265625 -22.015625 9.578125 -19.335938 9.578125 -16.015625 Z M 9.578125 -16.015625 "/></g></g><g style="fill:#191919;fill-opacity:1;"><g transform="translate(271.843064, 194.221322)"><path style="stroke:none" d="M 11.875 -5.5625 C 11.875 -4.03125 12.066406 -2.832031 12.453125 -1.96875 C 12.835938 -1.113281 13.738281 -0.535156 15.15625 -0.234375 L 15.15625 0 L 4.078125 0 L 4.59375 -3.5625 L 4.59375 -37.703125 C 4.59375 -38.847656 4.191406 -39.421875 3.390625 -39.421875 C 2.585938 -39.421875 1.265625 -39.15625 -0.578125 -38.625 L -0.578125 -38.96875 L 12.171875 -44.9375 L 11.875 -42.359375 Z M 11.875 -5.5625 "/></g></g><g style="fill:#191919;fill-opacity:1;"><g transform="translate(80.2041, 247.623458)"><path style="stroke:none" d="M 51.015625 -39.890625 C 49.828125 -39.734375 48.800781 -39.453125 47.9375 -39.046875 C 47.082031 -38.648438 46.65625 -37.9375 46.65625 -36.90625 L 46.65625 -3.265625 C 46.65625 -2.234375 47.082031 -1.515625 47.9375 -1.109375 C 48.800781 -0.710938 49.828125 -0.4375 51.015625 -0.28125 L 51.015625 0 L 34.4375 0 L 34.4375 -0.28125 C 35.625 -0.4375 36.644531 -0.710938 37.5 -1.109375 C 38.363281 -1.515625 38.796875 -2.234375 38.796875 -3.265625 L 38.796875 -37.1875 L 22.78125 0.625 L 6.375 -32.140625 L 6.375 -10.15625 C 6.375 -7.550781 6.570312 -5.550781 6.96875 -4.15625 C 7.375 -2.757812 7.910156 -1.789062 8.578125 -1.25 C 9.242188 -0.71875 9.960938 -0.394531 10.734375 -0.28125 L 10.734375 0 L 0.859375 0 L 0.859375 -0.28125 C 1.660156 -0.394531 2.382812 -0.625 3.03125 -0.96875 C 3.6875 -1.3125 4.210938 -2.085938 4.609375 -3.296875 C 5.015625 -4.503906 5.21875 -6.410156 5.21875 -9.015625 L 5.21875 -34.4375 C 4.6875 -35.539062 4.082031 -36.539062 3.40625 -37.4375 C 2.738281 -38.34375 1.796875 -39.253906 0.578125 -40.171875 L 10.671875 -40.171875 L 25.9375 -9.703125 L 38.796875 -40.171875 L 51.015625 -40.171875 Z M 51.015625 -39.890625 "/></g></g><g style="fill:#191919;fill-opacity:1;"><g transform="translate(134.949408, 247.623458)"><path style="stroke:none" d="M 31.625 -4.703125 C 31.625 -3.171875 31.785156 -2.0625 32.109375 -1.375 C 32.429688 -0.6875 33.015625 -0.0546875 33.859375 0.515625 L 33.859375 0.6875 L 22.90625 -1.09375 C 22.90625 -1.09375 22.910156 -1.09375 22.921875 -1.09375 C 22.941406 -1.09375 22.953125 -1.109375 22.953125 -1.140625 C 22.035156 -0.648438 21.003906 -0.269531 19.859375 0 C 18.710938 0.269531 17.46875 0.40625 16.125 0.40625 C 13.332031 0.40625 10.898438 -0.128906 8.828125 -1.203125 C 6.765625 -2.273438 5.160156 -3.796875 4.015625 -5.765625 C 2.867188 -7.734375 2.296875 -10.039062 2.296875 -12.6875 C 2.296875 -15.476562 2.953125 -18.050781 4.265625 -20.40625 C 5.585938 -22.757812 7.578125 -24.640625 10.234375 -26.046875 C 12.898438 -27.460938 16.257812 -28.171875 20.3125 -28.171875 C 22.15625 -28.171875 24.039062 -28 25.96875 -27.65625 C 27.90625 -27.3125 29.789062 -26.78125 31.625 -26.0625 Z M 9.578125 -16.015625 C 9.578125 -13.253906 10.015625 -10.773438 10.890625 -8.578125 C 11.773438 -6.378906 12.992188 -4.640625 14.546875 -3.359375 C 16.097656 -2.078125 17.832031 -1.4375 19.75 -1.4375 C 21.539062 -1.4375 23.03125 -2.085938 24.21875 -3.390625 C 24.257812 -3.691406 24.285156 -4.003906 24.296875 -4.328125 C 24.316406 -4.660156 24.328125 -5.035156 24.328125 -5.453125 L 24.328125 -23.984375 C 23.453125 -24.984375 22.476562 -25.75 21.40625 -26.28125 C 20.332031 -26.820312 19.109375 -27.09375 17.734375 -27.09375 C 15.054688 -27.09375 13.023438 -26.078125 11.640625 -24.046875 C 10.265625 -22.015625 9.578125 -19.335938 9.578125 -16.015625 Z M 9.578125 -16.015625 "/></g></g><g style="fill:#191919;fill-opacity:1;"><g transform="translate(173.971346, 247.623458)"><path style="stroke:none" d="M 20.609375 -28.125 C 21.753906 -28.125 22.804688 -27.894531 23.765625 -27.4375 L 18.015625 -17.90625 L 17.796875 -17.90625 C 18.441406 -19.625 18.550781 -21.085938 18.125 -22.296875 C 17.707031 -23.503906 16.960938 -24.109375 15.890625 -24.109375 C 14.597656 -24.109375 13.578125 -23.367188 12.828125 -21.890625 C 12.078125 -20.421875 11.585938 -18.691406 11.359375 -16.703125 L 11.359375 -5.34375 C 11.359375 -3.8125 11.519531 -2.679688 11.84375 -1.953125 C 12.175781 -1.222656 12.765625 -0.570312 13.609375 0 L 3.78125 0 L 4.078125 -3.953125 L 4.078125 -26 C 3.691406 -26.269531 3.160156 -26.5 2.484375 -26.6875 C 1.816406 -26.875 1.179688 -26.988281 0.578125 -27.03125 L 0.578125 -27.265625 L 11.65625 -28.125 L 11.359375 -23.875 L 11.359375 -22.03125 L 12.109375 -22.03125 C 12.753906 -23.875 13.820312 -25.347656 15.3125 -26.453125 C 16.8125 -27.566406 18.578125 -28.125 20.609375 -28.125 Z M 20.609375 -28.125 "/></g></g><g style="fill:#191919;fill-opacity:1;"><g transform="translate(201.45898, 247.623458)"><path style="stroke:none" d="M 34.4375 0 L 23.46875 0 L 23.46875 -0.96875 L 13.03125 -13.203125 L 11.875 -13.203125 L 11.875 -5.5625 C 11.875 -4.03125 12.066406 -2.832031 12.453125 -1.96875 C 12.835938 -1.113281 13.738281 -0.535156 15.15625 -0.234375 L 15.15625 0 L 4.078125 0 L 4.59375 -3.5625 L 4.59375 -37.703125 C 4.59375 -38.847656 4.191406 -39.421875 3.390625 -39.421875 C 2.585938 -39.421875 1.265625 -39.15625 -0.578125 -38.625 L -0.578125 -38.96875 L 12.171875 -44.9375 L 11.875 -42.359375 L 11.875 -13.375 L 23.359375 -24.734375 C 23.890625 -25.265625 24.179688 -25.796875 24.234375 -26.328125 C 24.296875 -26.867188 23.617188 -27.253906 22.203125 -27.484375 L 22.328125 -27.828125 L 32.3125 -27.828125 L 32.203125 -27.484375 C 31.015625 -27.335938 29.472656 -26.820312 27.578125 -25.9375 C 25.679688 -25.0625 23.488281 -23.378906 21 -20.890625 L 17.453125 -17.328125 L 25.890625 -7.578125 C 27.222656 -6.085938 28.335938 -4.875 29.234375 -3.9375 C 30.140625 -3 30.984375 -2.234375 31.765625 -1.640625 C 32.546875 -1.046875 33.4375 -0.5 34.4375 0 Z M 34.4375 0 "/></g></g><g style="fill:#191919;fill-opacity:1;"><g transform="translate(238.759383, 247.623458)"><path style="stroke:none" d="M 29.90625 -5.625 L 30.1875 -5.390625 C 29.34375 -3.785156 27.820312 -2.414062 25.625 -1.28125 C 23.425781 -0.15625 20.796875 0.40625 17.734375 0.40625 C 14.671875 0.40625 11.984375 -0.175781 9.671875 -1.34375 C 7.359375 -2.507812 5.550781 -4.144531 4.25 -6.25 C 2.945312 -8.351562 2.296875 -10.765625 2.296875 -13.484375 C 2.296875 -15.785156 2.742188 -17.84375 3.640625 -19.65625 C 4.546875 -21.46875 5.78125 -23.003906 7.34375 -24.265625 C 8.914062 -25.535156 10.6875 -26.503906 12.65625 -27.171875 C 14.625 -27.835938 16.679688 -28.171875 18.828125 -28.171875 C 21.304688 -28.171875 23.335938 -27.757812 24.921875 -26.9375 C 26.515625 -26.125 27.6875 -25.113281 28.4375 -23.90625 C 29.1875 -22.695312 29.539062 -21.476562 29.5 -20.25 C 29.457031 -19.03125 29.046875 -18.007812 28.265625 -17.1875 C 27.484375 -16.363281 26.363281 -15.953125 24.90625 -15.953125 L 9.75 -15.953125 C 9.789062 -13.234375 10.296875 -10.859375 11.265625 -8.828125 C 12.242188 -6.804688 13.601562 -5.226562 15.34375 -4.09375 C 17.09375 -2.96875 19.113281 -2.40625 21.40625 -2.40625 C 22.320312 -2.40625 23.328125 -2.507812 24.421875 -2.71875 C 25.515625 -2.9375 26.554688 -3.28125 27.546875 -3.75 C 28.546875 -4.226562 29.332031 -4.851562 29.90625 -5.625 Z M 16.9375 -27.265625 C 14.976562 -27.265625 13.316406 -26.34375 11.953125 -24.5 C 10.597656 -22.664062 9.863281 -20.144531 9.75 -16.9375 L 21.296875 -17.046875 C 22.054688 -17.046875 22.609375 -17.390625 22.953125 -18.078125 C 23.296875 -18.765625 23.429688 -19.613281 23.359375 -20.625 C 23.285156 -21.644531 22.988281 -22.660156 22.46875 -23.671875 C 21.945312 -24.679688 21.226562 -25.53125 20.3125 -26.21875 C 19.394531 -26.914062 18.269531 -27.265625 16.9375 -27.265625 Z M 16.9375 -27.265625 "/></g></g><g style="fill:#191919;fill-opacity:1;"><g transform="translate(273.075786, 247.623458)"><path style="stroke:none" d="M 11.140625 0.921875 L 4.875 -0.515625 L 5.046875 -3.953125 L 5.046875 -30.703125 C 5.046875 -31.929688 4.632812 -32.535156 3.8125 -32.515625 C 2.988281 -32.492188 1.625 -32.210938 -0.28125 -31.671875 L -0.28125 -32.03125 L 12.796875 -38.109375 L 12.34375 -35.46875 L 12.34375 -27.828125 L 19.390625 -27.828125 L 19.109375 -26.453125 L 12.34375 -26.453125 L 12.34375 -1.03125 L 20.265625 -1.265625 L 20.265625 -1.03125 L 12.34375 0.921875 Z M 11.140625 0.921875 "/></g></g><g style="fill:#000000;fill-opacity:1;"><g transform="translate(163.390867, 354.136132)"><path style="stroke:none" d="M 1.046875 0.171875 C 1.035156 -0.046875 1.039062 -0.269531 1.0625 -0.5 C 1.144531 -1.25 1.359375 -1.925781 1.703125 -2.53125 C 2.046875 -3.101562 2.453125 -3.613281 2.921875 -4.0625 C 3.367188 -4.5 3.84375 -4.898438 4.34375 -5.265625 C 4.582031 -5.429688 4.8125 -5.597656 5.03125 -5.765625 C 5.257812 -5.929688 5.484375 -6.097656 5.703125 -6.265625 C 6.109375 -6.566406 6.453125 -6.882812 6.734375 -7.21875 C 6.972656 -7.488281 7.109375 -7.789062 7.140625 -8.125 C 7.179688 -8.445312 7.085938 -8.738281 6.859375 -9 C 6.628906 -9.257812 6.296875 -9.410156 5.859375 -9.453125 C 5.460938 -9.503906 5.09375 -9.46875 4.75 -9.34375 C 4.382812 -9.21875 4.039062 -9.035156 3.71875 -8.796875 L 3.375 -8.546875 L 3.140625 -8.890625 L 2.421875 -9.984375 L 2.21875 -10.328125 L 2.515625 -10.5625 C 3.023438 -10.9375 3.582031 -11.21875 4.1875 -11.40625 C 4.5 -11.5 4.828125 -11.554688 5.171875 -11.578125 C 5.523438 -11.609375 5.890625 -11.601562 6.265625 -11.5625 C 6.785156 -11.507812 7.265625 -11.382812 7.703125 -11.1875 C 7.898438 -11.070312 8.09375 -10.945312 8.28125 -10.8125 C 8.46875 -10.675781 8.628906 -10.53125 8.765625 -10.375 C 9.066406 -10.039062 9.285156 -9.660156 9.421875 -9.234375 C 9.554688 -8.816406 9.597656 -8.390625 9.546875 -7.953125 C 9.523438 -7.804688 9.5 -7.664062 9.46875 -7.53125 C 9.4375 -7.394531 9.394531 -7.253906 9.34375 -7.109375 C 9.289062 -6.972656 9.234375 -6.84375 9.171875 -6.71875 C 9.117188 -6.59375 9.046875 -6.46875 8.953125 -6.34375 C 8.648438 -5.894531 8.285156 -5.484375 7.859375 -5.109375 C 7.441406 -4.734375 7 -4.378906 6.53125 -4.046875 C 6.289062 -3.890625 6.066406 -3.726562 5.859375 -3.5625 C 5.648438 -3.40625 5.441406 -3.25 5.234375 -3.09375 C 5.035156 -2.925781 4.847656 -2.753906 4.671875 -2.578125 C 4.492188 -2.398438 4.320312 -2.21875 4.15625 -2.03125 C 4.113281 -1.957031 4.066406 -1.882812 4.015625 -1.8125 C 3.960938 -1.75 3.914062 -1.675781 3.875 -1.59375 C 3.832031 -1.519531 3.796875 -1.441406 3.765625 -1.359375 L 8.3125 -0.859375 L 8.734375 -0.8125 L 8.703125 -0.40625 L 8.546875 0.9375 L 8.5 1.34375 L 8.078125 1.296875 L 1.390625 0.5625 L 1.0625 0.53125 Z M 1.046875 0.171875 "/></g></g><g style="fill:#000000;fill-opacity:1;"><g transform="translate(175.927437, 355.424233)"><path style="stroke:none" d="M 5.4375 -11.984375 C 6.144531 -11.960938 6.773438 -11.789062 7.328125 -11.46875 C 7.585938 -11.3125 7.828125 -11.117188 8.046875 -10.890625 C 8.273438 -10.671875 8.476562 -10.414062 8.65625 -10.125 C 8.988281 -9.550781 9.234375 -8.867188 9.390625 -8.078125 C 9.535156 -7.296875 9.59375 -6.414062 9.5625 -5.4375 C 9.476562 -3.425781 9.054688 -1.890625 8.296875 -0.828125 C 7.484375 0.304688 6.363281 0.847656 4.9375 0.796875 C 3.488281 0.742188 2.410156 0.117188 1.703125 -1.078125 C 1.359375 -1.660156 1.109375 -2.34375 0.953125 -3.125 C 0.804688 -3.90625 0.753906 -4.796875 0.796875 -5.796875 C 0.867188 -7.796875 1.289062 -9.328125 2.0625 -10.390625 C 2.875 -11.503906 4 -12.035156 5.4375 -11.984375 Z M 5.34375 -9.828125 C 5.3125 -9.828125 5.273438 -9.828125 5.234375 -9.828125 C 5.191406 -9.835938 5.148438 -9.835938 5.109375 -9.828125 C 5.078125 -9.828125 5.039062 -9.820312 5 -9.8125 C 4.957031 -9.8125 4.921875 -9.800781 4.890625 -9.78125 C 4.859375 -9.769531 4.828125 -9.765625 4.796875 -9.765625 C 4.773438 -9.765625 4.742188 -9.753906 4.703125 -9.734375 C 4.671875 -9.722656 4.640625 -9.710938 4.609375 -9.703125 C 4.585938 -9.691406 4.5625 -9.675781 4.53125 -9.65625 C 4.414062 -9.613281 4.304688 -9.539062 4.203125 -9.4375 C 4.097656 -9.34375 4.003906 -9.222656 3.921875 -9.078125 C 3.710938 -8.753906 3.550781 -8.328125 3.4375 -7.796875 C 3.3125 -7.242188 3.234375 -6.550781 3.203125 -5.71875 C 3.148438 -4.25 3.300781 -3.144531 3.65625 -2.40625 C 3.976562 -1.75 4.4375 -1.410156 5.03125 -1.390625 C 5.1875 -1.390625 5.328125 -1.398438 5.453125 -1.421875 C 5.578125 -1.453125 5.703125 -1.492188 5.828125 -1.546875 C 6.066406 -1.671875 6.273438 -1.867188 6.453125 -2.140625 C 6.546875 -2.296875 6.632812 -2.476562 6.71875 -2.6875 C 6.800781 -2.90625 6.867188 -3.148438 6.921875 -3.421875 C 7.054688 -3.972656 7.140625 -4.671875 7.171875 -5.515625 C 7.222656 -6.972656 7.066406 -8.070312 6.703125 -8.8125 C 6.390625 -9.46875 5.9375 -9.804688 5.34375 -9.828125 Z M 5.34375 -9.828125 "/></g></g><g style="fill:#000000;fill-opacity:1;"><g transform="translate(188.524736, 355.789153)"><path style="stroke:none" d="M 1.046875 0.03125 C 1.003906 -0.1875 0.984375 -0.410156 0.984375 -0.640625 C 0.953125 -1.398438 1.066406 -2.101562 1.328125 -2.75 C 1.585938 -3.363281 1.910156 -3.929688 2.296875 -4.453125 C 2.671875 -4.941406 3.082031 -5.40625 3.53125 -5.84375 C 3.75 -6.050781 3.957031 -6.253906 4.15625 -6.453125 C 4.351562 -6.648438 4.546875 -6.847656 4.734375 -7.046875 C 5.085938 -7.398438 5.375 -7.757812 5.59375 -8.125 C 5.789062 -8.4375 5.882812 -8.757812 5.875 -9.09375 C 5.863281 -9.425781 5.726562 -9.703125 5.46875 -9.921875 C 5.195312 -10.140625 4.84375 -10.238281 4.40625 -10.21875 C 4.007812 -10.207031 3.648438 -10.117188 3.328125 -9.953125 C 2.992188 -9.765625 2.679688 -9.53125 2.390625 -9.25 L 2.09375 -8.953125 L 1.796875 -9.265625 L 0.9375 -10.234375 L 0.671875 -10.53125 L 0.953125 -10.8125 C 1.398438 -11.25 1.90625 -11.609375 2.46875 -11.890625 C 2.769531 -12.035156 3.085938 -12.144531 3.421875 -12.21875 C 3.765625 -12.289062 4.125 -12.335938 4.5 -12.359375 C 5.019531 -12.367188 5.515625 -12.3125 5.984375 -12.1875 C 6.203125 -12.101562 6.410156 -12.003906 6.609375 -11.890625 C 6.816406 -11.785156 7.003906 -11.671875 7.171875 -11.546875 C 7.515625 -11.265625 7.78125 -10.925781 7.96875 -10.53125 C 8.15625 -10.132812 8.257812 -9.710938 8.28125 -9.265625 C 8.28125 -9.117188 8.273438 -8.972656 8.265625 -8.828125 C 8.253906 -8.691406 8.234375 -8.550781 8.203125 -8.40625 C 8.179688 -8.257812 8.144531 -8.117188 8.09375 -7.984375 C 8.050781 -7.859375 8 -7.726562 7.9375 -7.59375 C 7.707031 -7.101562 7.40625 -6.640625 7.03125 -6.203125 C 6.6875 -5.773438 6.300781 -5.363281 5.875 -4.96875 C 5.664062 -4.769531 5.46875 -4.578125 5.28125 -4.390625 C 5.09375 -4.203125 4.90625 -4.007812 4.71875 -3.8125 C 4.550781 -3.625 4.390625 -3.429688 4.234375 -3.234375 C 4.085938 -3.035156 3.953125 -2.832031 3.828125 -2.625 C 3.785156 -2.539062 3.742188 -2.460938 3.703125 -2.390625 C 3.660156 -2.316406 3.625 -2.238281 3.59375 -2.15625 C 3.570312 -2.070312 3.550781 -1.984375 3.53125 -1.890625 L 8.109375 -2.0625 L 8.53125 -2.078125 L 8.546875 -1.671875 L 8.59375 -0.3125 L 8.609375 0.09375 L 8.1875 0.109375 L 1.46875 0.359375 L 1.125 0.359375 Z M 1.046875 0.03125 "/></g></g><g style="fill:#000000;fill-opacity:1;"><g transform="translate(201.114844, 355.228905)"><path style="stroke:none" d="M 8.5 -4.5625 C 8.53125 -4.257812 8.53125 -3.960938 8.5 -3.671875 C 8.476562 -3.390625 8.4375 -3.113281 8.375 -2.84375 C 8.207031 -2.300781 7.941406 -1.820312 7.578125 -1.40625 C 7.535156 -1.363281 7.492188 -1.316406 7.453125 -1.265625 C 7.410156 -1.222656 7.363281 -1.179688 7.3125 -1.140625 C 7.269531 -1.097656 7.226562 -1.054688 7.1875 -1.015625 C 7.144531 -0.984375 7.097656 -0.941406 7.046875 -0.890625 C 7.003906 -0.847656 6.953125 -0.804688 6.890625 -0.765625 C 6.835938 -0.734375 6.785156 -0.703125 6.734375 -0.671875 C 6.691406 -0.640625 6.640625 -0.601562 6.578125 -0.5625 C 6.523438 -0.53125 6.472656 -0.5 6.421875 -0.46875 C 6.378906 -0.445312 6.328125 -0.421875 6.265625 -0.390625 C 5.742188 -0.117188 5.15625 0.0507812 4.5 0.125 C 4.132812 0.15625 3.800781 0.171875 3.5 0.171875 C 3.195312 0.171875 2.90625 0.140625 2.625 0.078125 C 2.082031 -0.0234375 1.585938 -0.195312 1.140625 -0.4375 L 0.78125 -0.640625 L 0.96875 -0.984375 L 1.59375 -2.34375 L 1.765625 -2.75 L 2.171875 -2.515625 C 2.242188 -2.484375 2.316406 -2.441406 2.390625 -2.390625 C 2.472656 -2.347656 2.550781 -2.3125 2.625 -2.28125 C 2.707031 -2.257812 2.789062 -2.234375 2.875 -2.203125 C 2.96875 -2.171875 3.0625 -2.144531 3.15625 -2.125 C 3.320312 -2.070312 3.5 -2.039062 3.6875 -2.03125 C 3.875 -2.019531 4.070312 -2.03125 4.28125 -2.0625 C 4.601562 -2.09375 4.882812 -2.164062 5.125 -2.28125 C 5.363281 -2.40625 5.5625 -2.554688 5.71875 -2.734375 C 5.875 -2.921875 5.988281 -3.132812 6.0625 -3.375 C 6.09375 -3.488281 6.109375 -3.601562 6.109375 -3.71875 C 6.117188 -3.84375 6.117188 -3.976562 6.109375 -4.125 C 6.046875 -4.6875 5.8125 -5.125 5.40625 -5.4375 C 5.1875 -5.582031 4.929688 -5.6875 4.640625 -5.75 C 4.347656 -5.8125 4.003906 -5.820312 3.609375 -5.78125 L 1.578125 -5.546875 L 1.15625 -5.5 L 1.109375 -5.921875 L 0.484375 -11.6875 L 0.4375 -12.109375 L 0.859375 -12.15625 L 6.546875 -12.796875 L 6.96875 -12.84375 L 7.015625 -12.421875 L 7.15625 -11.109375 L 7.203125 -10.6875 L 6.78125 -10.640625 L 2.890625 -10.203125 L 3.140625 -7.90625 L 3.5625 -7.953125 C 4.238281 -8.023438 4.863281 -8 5.4375 -7.875 C 5.625 -7.832031 5.800781 -7.78125 5.96875 -7.71875 C 6.144531 -7.664062 6.316406 -7.597656 6.484375 -7.515625 C 6.660156 -7.429688 6.816406 -7.335938 6.953125 -7.234375 C 7.097656 -7.140625 7.234375 -7.03125 7.359375 -6.90625 C 7.484375 -6.78125 7.597656 -6.648438 7.703125 -6.515625 C 7.816406 -6.378906 7.921875 -6.234375 8.015625 -6.078125 C 8.273438 -5.617188 8.4375 -5.113281 8.5 -4.5625 Z M 8.5 -4.5625 "/></g></g><g style="fill:#000000;fill-opacity:1;"><g transform="translate(73.039666, 108.013923)"><path style="stroke:none" d="M -7.09375 -7.796875 C -7.03125 -7.898438 -6.960938 -7.992188 -6.890625 -8.078125 C -6.816406 -8.171875 -6.75 -8.257812 -6.6875 -8.34375 C -6.632812 -8.4375 -6.570312 -8.53125 -6.5 -8.625 C -6.425781 -8.726562 -6.351562 -8.820312 -6.28125 -8.90625 C -6.019531 -9.25 -5.703125 -9.632812 -5.328125 -10.0625 C -4.734375 -10.75 -4.101562 -11.253906 -3.4375 -11.578125 C -2.78125 -11.910156 -2.101562 -12.078125 -1.40625 -12.078125 C -0.75 -12.085938 -0.09375 -11.953125 0.5625 -11.671875 C 1.207031 -11.398438 1.8125 -11.019531 2.375 -10.53125 C 2.9375 -10.039062 3.398438 -9.5 3.765625 -8.90625 C 3.835938 -8.78125 3.90625 -8.648438 3.96875 -8.515625 C 4.03125 -8.390625 4.082031 -8.265625 4.125 -8.140625 C 4.175781 -8.015625 4.222656 -7.890625 4.265625 -7.765625 C 4.304688 -7.640625 4.347656 -7.507812 4.390625 -7.375 C 4.429688 -7.238281 4.457031 -7.097656 4.46875 -6.953125 C 4.550781 -6.273438 4.476562 -5.570312 4.25 -4.84375 C 4.007812 -4.132812 3.578125 -3.414062 2.953125 -2.6875 C 2.890625 -2.613281 2.828125 -2.539062 2.765625 -2.46875 C 2.710938 -2.40625 2.65625 -2.34375 2.59375 -2.28125 C 2.539062 -2.21875 2.488281 -2.15625 2.4375 -2.09375 C 2.394531 -2.039062 2.347656 -1.984375 2.296875 -1.921875 C 2.242188 -1.867188 2.1875 -1.8125 2.125 -1.75 C 2.070312 -1.695312 2.019531 -1.648438 1.96875 -1.609375 C 1.6875 -1.316406 1.390625 -1.023438 1.078125 -0.734375 L 0.828125 -0.515625 L 0.578125 -0.71875 L -7.046875 -7.3125 L -7.28125 -7.515625 Z M -3.90625 -8.765625 C -4 -8.671875 -4.085938 -8.570312 -4.171875 -8.46875 C -4.253906 -8.375 -4.328125 -8.289062 -4.390625 -8.21875 C -4.453125 -8.125 -4.503906 -8.039062 -4.546875 -7.96875 L 0.875 -3.28125 C 0.882812 -3.289062 0.894531 -3.304688 0.90625 -3.328125 C 0.925781 -3.347656 0.945312 -3.363281 0.96875 -3.375 C 0.988281 -3.394531 1.003906 -3.410156 1.015625 -3.421875 C 1.023438 -3.429688 1.039062 -3.445312 1.0625 -3.46875 C 1.226562 -3.644531 1.382812 -3.816406 1.53125 -3.984375 C 1.613281 -4.085938 1.6875 -4.179688 1.75 -4.265625 C 1.8125 -4.347656 1.875 -4.429688 1.9375 -4.515625 C 2 -4.609375 2.054688 -4.703125 2.109375 -4.796875 C 2.160156 -4.890625 2.203125 -4.976562 2.234375 -5.0625 C 2.273438 -5.15625 2.304688 -5.242188 2.328125 -5.328125 C 2.472656 -5.765625 2.515625 -6.1875 2.453125 -6.59375 C 2.398438 -7 2.25 -7.394531 2 -7.78125 C 1.726562 -8.1875 1.390625 -8.566406 0.984375 -8.921875 C 0.617188 -9.234375 0.226562 -9.484375 -0.1875 -9.671875 C -0.613281 -9.847656 -1.039062 -9.953125 -1.46875 -9.984375 C -1.675781 -9.984375 -1.882812 -9.957031 -2.09375 -9.90625 C -2.300781 -9.863281 -2.515625 -9.796875 -2.734375 -9.703125 C -3.140625 -9.515625 -3.53125 -9.203125 -3.90625 -8.765625 Z M -3.90625 -8.765625 "/></g></g><g style="fill:#000000;fill-opacity:1;"><g transform="translate(83.29689, 96.680715)"><path style="stroke:none" d="M 0.671875 -0.65625 L -6.421875 -7.90625 L -6.671875 -8.15625 L -6.421875 -8.40625 L -5.4375 -9.375 L -5.171875 -9.625 L -4.921875 -9.375 L 2.171875 -2.125 L 2.421875 -1.875 L 2.15625 -1.625 L 1.171875 -0.65625 L 0.921875 -0.40625 Z M 0.671875 -0.65625 "/></g></g><g style="fill:#000000;fill-opacity:1;"><g transform="translate(90.124384, 90.185725)"><path style="stroke:none" d="M -0.40625 -2.625 C -0.1875 -2.632812 0.0195312 -2.65625 0.21875 -2.6875 C 0.425781 -2.71875 0.632812 -2.769531 0.84375 -2.84375 C 1.25 -2.957031 1.65625 -3.1875 2.0625 -3.53125 C 2.300781 -3.726562 2.488281 -3.925781 2.625 -4.125 C 2.769531 -4.332031 2.867188 -4.535156 2.921875 -4.734375 C 3.023438 -5.085938 2.957031 -5.410156 2.71875 -5.703125 C 2.695312 -5.710938 2.675781 -5.734375 2.65625 -5.765625 C 2.632812 -5.796875 2.609375 -5.820312 2.578125 -5.84375 C 2.554688 -5.863281 2.53125 -5.882812 2.5 -5.90625 C 2.476562 -5.925781 2.457031 -5.941406 2.4375 -5.953125 C 2.414062 -5.972656 2.398438 -5.988281 2.390625 -6 C 2.273438 -6.0625 2.128906 -6.097656 1.953125 -6.109375 C 1.765625 -6.117188 1.519531 -6.097656 1.21875 -6.046875 C 0.882812 -5.953125 0.484375 -5.832031 0.015625 -5.6875 C -0.523438 -5.5 -1.007812 -5.367188 -1.4375 -5.296875 C -1.863281 -5.203125 -2.265625 -5.171875 -2.640625 -5.203125 C -2.773438 -5.234375 -2.894531 -5.257812 -3 -5.28125 C -3.113281 -5.3125 -3.226562 -5.347656 -3.34375 -5.390625 C -3.457031 -5.441406 -3.5625 -5.5 -3.65625 -5.5625 C -3.945312 -5.726562 -4.222656 -5.96875 -4.484375 -6.28125 C -4.753906 -6.601562 -4.941406 -6.960938 -5.046875 -7.359375 C -5.148438 -7.753906 -5.148438 -8.164062 -5.046875 -8.59375 C -4.960938 -9 -4.789062 -9.410156 -4.53125 -9.828125 C -4.269531 -10.234375 -3.914062 -10.628906 -3.46875 -11.015625 C -2.988281 -11.410156 -2.515625 -11.722656 -2.046875 -11.953125 C -1.566406 -12.179688 -1.070312 -12.363281 -0.5625 -12.5 L -0.234375 -12.5625 L -0.125 -12.234375 L 0.25 -11.015625 L 0.359375 -10.609375 L -0.046875 -10.546875 C -0.171875 -10.535156 -0.289062 -10.507812 -0.40625 -10.46875 C -0.519531 -10.4375 -0.632812 -10.398438 -0.75 -10.359375 C -0.875 -10.316406 -1.015625 -10.269531 -1.171875 -10.21875 C -1.554688 -10.050781 -1.921875 -9.828125 -2.265625 -9.546875 C -2.492188 -9.359375 -2.671875 -9.171875 -2.796875 -8.984375 C -2.921875 -8.804688 -3.007812 -8.628906 -3.0625 -8.453125 C -3.09375 -8.347656 -3.109375 -8.25 -3.109375 -8.15625 C -3.117188 -8.070312 -3.101562 -7.988281 -3.0625 -7.90625 C -3.03125 -7.832031 -2.984375 -7.757812 -2.921875 -7.6875 C -2.828125 -7.570312 -2.734375 -7.484375 -2.640625 -7.421875 C -2.546875 -7.367188 -2.425781 -7.335938 -2.28125 -7.328125 C -2.195312 -7.347656 -2.097656 -7.359375 -1.984375 -7.359375 C -1.867188 -7.367188 -1.738281 -7.394531 -1.59375 -7.4375 C -1.507812 -7.457031 -1.425781 -7.476562 -1.34375 -7.5 C -1.257812 -7.519531 -1.171875 -7.546875 -1.078125 -7.578125 C -0.992188 -7.609375 -0.894531 -7.640625 -0.78125 -7.671875 C -0.675781 -7.710938 -0.554688 -7.75 -0.421875 -7.78125 C 0.140625 -7.988281 0.644531 -8.132812 1.09375 -8.21875 C 1.207031 -8.226562 1.304688 -8.238281 1.390625 -8.25 C 1.472656 -8.257812 1.554688 -8.265625 1.640625 -8.265625 C 1.734375 -8.273438 1.820312 -8.28125 1.90625 -8.28125 C 1.988281 -8.289062 2.070312 -8.289062 2.15625 -8.28125 C 2.238281 -8.28125 2.316406 -8.269531 2.390625 -8.25 C 2.773438 -8.207031 3.117188 -8.09375 3.421875 -7.90625 C 3.734375 -7.726562 4.007812 -7.488281 4.25 -7.1875 C 4.59375 -6.78125 4.816406 -6.351562 4.921875 -5.90625 C 5.035156 -5.457031 5.039062 -5 4.9375 -4.53125 C 4.84375 -4.09375 4.648438 -3.65625 4.359375 -3.21875 C 4.078125 -2.800781 3.722656 -2.414062 3.296875 -2.0625 C 2.722656 -1.582031 2.132812 -1.21875 1.53125 -0.96875 C 0.925781 -0.738281 0.359375 -0.613281 -0.171875 -0.59375 L -0.515625 -0.578125 L -0.5625 -0.890625 L -0.765625 -2.234375 L -0.828125 -2.65625 Z M -0.40625 -2.625 "/></g></g><g style="fill:#000000;fill-opacity:1;"><g transform="translate(100.725591, 81.656748)"><path style="stroke:none" d="M -5.859375 -8.71875 L 0.40625 -13.046875 L 0.703125 -13.25 L 0.90625 -12.953125 L 1.59375 -11.953125 L 1.796875 -11.65625 L 1.5 -11.453125 L -0.765625 -9.890625 L 4.109375 -2.84375 L 4.3125 -2.546875 L 4.015625 -2.34375 L 2.890625 -1.5625 L 2.578125 -1.34375 L 2.375 -1.640625 L -2.5 -8.6875 L -4.765625 -7.125 L -5.0625 -6.921875 L -5.265625 -7.21875 L -5.953125 -8.21875 L -6.15625 -8.515625 Z M -5.859375 -8.71875 "/></g></g><g style="fill:#000000;fill-opacity:1;"><g transform="translate(111.764232, 74.303998)"><path style="stroke:none" d="M 6.15625 -3.09375 L 3.71875 -4.875 C 3.164062 -5.28125 2.644531 -5.484375 2.15625 -5.484375 C 2 -5.492188 1.835938 -5.484375 1.671875 -5.453125 C 1.515625 -5.421875 1.351562 -5.375 1.1875 -5.3125 C 1.019531 -5.25 0.835938 -5.164062 0.640625 -5.0625 L 2.65625 -1.484375 L 2.828125 -1.171875 L 2.5 -1 L 1.296875 -0.328125 L 0.984375 -0.140625 L 0.8125 -0.453125 L -4.140625 -9.265625 L -4.296875 -9.5625 L -4 -9.75 C -3.789062 -9.894531 -3.582031 -10.035156 -3.375 -10.171875 C -3.175781 -10.316406 -2.972656 -10.445312 -2.765625 -10.5625 C -2.367188 -10.8125 -1.9375 -11.070312 -1.46875 -11.34375 C -0.894531 -11.65625 -0.359375 -11.882812 0.140625 -12.03125 C 0.660156 -12.15625 1.128906 -12.175781 1.546875 -12.09375 C 1.992188 -12.03125 2.390625 -11.878906 2.734375 -11.640625 C 3.085938 -11.398438 3.375 -11.082031 3.59375 -10.6875 C 3.988281 -9.988281 4.09375 -9.300781 3.90625 -8.625 C 3.789062 -8.1875 3.566406 -7.757812 3.234375 -7.34375 C 3.335938 -7.3125 3.429688 -7.285156 3.515625 -7.265625 C 3.597656 -7.253906 3.679688 -7.234375 3.765625 -7.203125 C 3.878906 -7.160156 3.992188 -7.113281 4.109375 -7.0625 C 4.234375 -7.019531 4.359375 -6.960938 4.484375 -6.890625 C 4.722656 -6.765625 5 -6.585938 5.3125 -6.359375 L 7.40625 -4.828125 L 7.703125 -4.625 L 7.5 -4.3125 L 6.6875 -3.171875 L 6.46875 -2.875 Z M -0.546875 -9.71875 C -0.679688 -9.632812 -0.8125 -9.554688 -0.9375 -9.484375 C -1.0625 -9.421875 -1.179688 -9.351562 -1.296875 -9.28125 C -1.328125 -9.257812 -1.359375 -9.234375 -1.390625 -9.203125 C -1.429688 -9.171875 -1.46875 -9.144531 -1.5 -9.125 C -1.539062 -9.101562 -1.570312 -9.085938 -1.59375 -9.078125 L -0.28125 -6.71875 L 0.78125 -7.328125 C 1.320312 -7.628906 1.695312 -7.988281 1.90625 -8.40625 C 2.070312 -8.769531 2.039062 -9.148438 1.8125 -9.546875 C 1.726562 -9.703125 1.617188 -9.828125 1.484375 -9.921875 C 1.359375 -10.015625 1.191406 -10.078125 0.984375 -10.109375 C 0.773438 -10.140625 0.546875 -10.125 0.296875 -10.0625 C 0.046875 -10 -0.234375 -9.882812 -0.546875 -9.71875 Z M -0.546875 -9.71875 "/></g></g><g style="fill:#000000;fill-opacity:1;"><g transform="translate(124.440953, 67.56012)"><path style="stroke:none" d="M 0.859375 -0.390625 L -3.375 -9.609375 L -3.515625 -9.9375 L -3.203125 -10.09375 L -1.953125 -10.65625 L -1.609375 -10.8125 L -1.46875 -10.484375 L 2.765625 -1.265625 L 2.921875 -0.9375 L 2.578125 -0.78125 L 1.328125 -0.21875 L 1.015625 -0.0625 Z M 0.859375 -0.390625 "/></g></g><g style="fill:#000000;fill-opacity:1;"><g transform="translate(133.041332, 63.738723)"><path style="stroke:none" d="M -2.390625 -10.28125 C -2.085938 -10.425781 -1.703125 -10.597656 -1.234375 -10.796875 C -0.773438 -10.992188 -0.234375 -11.207031 0.390625 -11.4375 C 1.640625 -11.882812 2.691406 -11.992188 3.546875 -11.765625 C 4.441406 -11.523438 5.050781 -10.960938 5.375 -10.078125 C 5.382812 -10.035156 5.394531 -9.984375 5.40625 -9.921875 C 5.425781 -9.867188 5.441406 -9.8125 5.453125 -9.75 C 5.472656 -9.695312 5.488281 -9.644531 5.5 -9.59375 C 5.507812 -9.539062 5.519531 -9.484375 5.53125 -9.421875 C 5.539062 -9.359375 5.546875 -9.300781 5.546875 -9.25 C 5.554688 -9.195312 5.554688 -9.144531 5.546875 -9.09375 C 5.546875 -9.039062 5.539062 -8.984375 5.53125 -8.921875 C 5.53125 -8.867188 5.523438 -8.816406 5.515625 -8.765625 C 5.515625 -8.710938 5.503906 -8.65625 5.484375 -8.59375 C 5.472656 -8.53125 5.460938 -8.484375 5.453125 -8.453125 C 5.359375 -8.148438 5.210938 -7.859375 5.015625 -7.578125 C 5.453125 -7.492188 5.828125 -7.363281 6.140625 -7.1875 C 6.679688 -6.875 7.070312 -6.390625 7.3125 -5.734375 C 7.664062 -4.753906 7.570312 -3.835938 7.03125 -2.984375 C 6.488281 -2.160156 5.53125 -1.5 4.15625 -1 C 3.582031 -0.789062 3.039062 -0.609375 2.53125 -0.453125 C 2.007812 -0.296875 1.59375 -0.179688 1.28125 -0.109375 L 0.96875 -0.0625 L 0.859375 -0.359375 L -2.578125 -9.828125 L -2.6875 -10.125 Z M 3.59375 -2.796875 C 3.75 -2.847656 3.894531 -2.90625 4.03125 -2.96875 C 4.175781 -3.03125 4.300781 -3.09375 4.40625 -3.15625 C 4.519531 -3.21875 4.625 -3.285156 4.71875 -3.359375 C 4.8125 -3.429688 4.894531 -3.5 4.96875 -3.5625 C 5.050781 -3.632812 5.117188 -3.710938 5.171875 -3.796875 C 5.316406 -3.972656 5.398438 -4.15625 5.421875 -4.34375 C 5.441406 -4.53125 5.410156 -4.738281 5.328125 -4.96875 C 5.171875 -5.382812 4.878906 -5.648438 4.453125 -5.765625 C 3.960938 -5.890625 3.335938 -5.816406 2.578125 -5.546875 L 1.375 -5.109375 L 2.359375 -2.40625 C 2.765625 -2.507812 3.175781 -2.640625 3.59375 -2.796875 Z M 1.921875 -7.203125 C 2.566406 -7.441406 3.019531 -7.757812 3.28125 -8.15625 C 3.53125 -8.488281 3.585938 -8.835938 3.453125 -9.203125 C 3.316406 -9.597656 3.054688 -9.835938 2.671875 -9.921875 C 2.222656 -10.023438 1.671875 -9.953125 1.015625 -9.703125 C 0.941406 -9.679688 0.867188 -9.65625 0.796875 -9.625 C 0.722656 -9.601562 0.65625 -9.578125 0.59375 -9.546875 C 0.53125 -9.515625 0.460938 -9.488281 0.390625 -9.46875 C 0.328125 -9.445312 0.269531 -9.425781 0.21875 -9.40625 C 0.175781 -9.382812 0.132812 -9.363281 0.09375 -9.34375 C 0.0625 -9.332031 0.0234375 -9.316406 -0.015625 -9.296875 C -0.0546875 -9.273438 -0.09375 -9.257812 -0.125 -9.25 L 0.765625 -6.796875 Z M 1.921875 -7.203125 "/></g></g><g style="fill:#000000;fill-opacity:1;"><g transform="translate(146.717328, 59.027064)"><path style="stroke:none" d="M 4.46875 -11.96875 L 5.765625 -12.296875 L 6.109375 -12.390625 L 6.203125 -12.046875 L 7.734375 -6 C 7.898438 -5.34375 7.957031 -4.726562 7.90625 -4.15625 C 7.851562 -3.582031 7.703125 -3.054688 7.453125 -2.578125 C 7.398438 -2.472656 7.335938 -2.375 7.265625 -2.28125 C 7.203125 -2.195312 7.140625 -2.113281 7.078125 -2.03125 C 7.023438 -1.945312 6.957031 -1.867188 6.875 -1.796875 C 6.789062 -1.722656 6.707031 -1.648438 6.625 -1.578125 C 6.550781 -1.503906 6.46875 -1.4375 6.375 -1.375 C 5.9375 -1.0625 5.414062 -0.828125 4.8125 -0.671875 C 3.5625 -0.359375 2.488281 -0.484375 1.59375 -1.046875 C 0.707031 -1.597656 0.09375 -2.550781 -0.25 -3.90625 L -1.796875 -10 L -1.890625 -10.34375 L -1.53125 -10.4375 L -0.203125 -10.78125 L 0.140625 -10.875 L 0.234375 -10.53125 L 1.734375 -4.640625 C 1.953125 -3.773438 2.285156 -3.160156 2.734375 -2.796875 C 2.941406 -2.617188 3.175781 -2.507812 3.4375 -2.46875 C 3.695312 -2.425781 4 -2.445312 4.34375 -2.53125 C 5.019531 -2.707031 5.46875 -3.046875 5.6875 -3.546875 C 5.914062 -4.066406 5.921875 -4.765625 5.703125 -5.640625 L 4.203125 -11.53125 L 4.109375 -11.875 Z M 4.46875 -11.96875 "/></g></g><g style="fill:#000000;fill-opacity:1;"><g transform="translate(161.446701, 55.636889)"><path style="stroke:none" d="M 0.921875 -0.15625 L -0.75 -10.15625 L -0.8125 -10.515625 L -0.453125 -10.578125 L 0.90625 -10.796875 L 1.265625 -10.859375 L 1.328125 -10.5 L 3 -0.5 L 3.0625 -0.140625 L 2.703125 -0.078125 L 1.34375 0.140625 L 0.984375 0.203125 Z M 0.921875 -0.15625 "/></g></g><g style="fill:#000000;fill-opacity:1;"><g transform="translate(170.735129, 54.187055)"><path style="stroke:none" d="M 0.40625 -10.546875 C 0.519531 -10.566406 0.632812 -10.582031 0.75 -10.59375 C 0.863281 -10.613281 0.972656 -10.632812 1.078125 -10.65625 C 1.191406 -10.675781 1.300781 -10.695312 1.40625 -10.71875 C 1.519531 -10.738281 1.632812 -10.753906 1.75 -10.765625 C 2.175781 -10.816406 2.671875 -10.867188 3.234375 -10.921875 C 4.148438 -10.992188 4.960938 -10.914062 5.671875 -10.6875 C 6.359375 -10.457031 6.953125 -10.097656 7.453125 -9.609375 C 7.929688 -9.148438 8.304688 -8.585938 8.578125 -7.921875 C 8.835938 -7.285156 9 -6.59375 9.0625 -5.84375 C 9.125 -5.101562 9.078125 -4.390625 8.921875 -3.703125 C 8.878906 -3.566406 8.835938 -3.429688 8.796875 -3.296875 C 8.765625 -3.160156 8.71875 -3.03125 8.65625 -2.90625 C 8.601562 -2.789062 8.546875 -2.671875 8.484375 -2.546875 C 8.421875 -2.429688 8.351562 -2.3125 8.28125 -2.1875 C 8.21875 -2.070312 8.144531 -1.957031 8.0625 -1.84375 C 7.644531 -1.289062 7.101562 -0.835938 6.4375 -0.484375 C 5.769531 -0.128906 4.957031 0.0820312 4 0.15625 C 3.90625 0.164062 3.8125 0.171875 3.71875 0.171875 C 3.632812 0.179688 3.546875 0.191406 3.453125 0.203125 C 3.367188 0.210938 3.285156 0.21875 3.203125 0.21875 C 3.128906 0.21875 3.050781 0.21875 2.96875 0.21875 C 2.894531 0.226562 2.816406 0.234375 2.734375 0.234375 C 2.660156 0.234375 2.585938 0.234375 2.515625 0.234375 C 2.117188 0.242188 1.710938 0.238281 1.296875 0.21875 L 0.96875 0.21875 L 0.9375 -0.109375 L 0.109375 -10.15625 L 0.078125 -10.46875 Z M 3.34375 -9 C 3.207031 -8.988281 3.078125 -8.972656 2.953125 -8.953125 C 2.828125 -8.941406 2.710938 -8.9375 2.609375 -8.9375 C 2.515625 -8.914062 2.421875 -8.894531 2.328125 -8.875 L 2.90625 -1.734375 C 2.925781 -1.734375 2.945312 -1.734375 2.96875 -1.734375 C 3 -1.742188 3.023438 -1.742188 3.046875 -1.734375 C 3.078125 -1.734375 3.097656 -1.734375 3.109375 -1.734375 C 3.128906 -1.734375 3.15625 -1.734375 3.1875 -1.734375 C 3.414062 -1.742188 3.644531 -1.757812 3.875 -1.78125 C 4 -1.789062 4.113281 -1.804688 4.21875 -1.828125 C 4.332031 -1.847656 4.441406 -1.863281 4.546875 -1.875 C 4.660156 -1.894531 4.765625 -1.921875 4.859375 -1.953125 C 4.960938 -1.984375 5.054688 -2.019531 5.140625 -2.0625 C 5.234375 -2.101562 5.316406 -2.140625 5.390625 -2.171875 C 5.804688 -2.378906 6.132812 -2.648438 6.375 -2.984375 C 6.613281 -3.304688 6.773438 -3.695312 6.859375 -4.15625 C 6.960938 -4.625 6.988281 -5.128906 6.9375 -5.671875 C 6.90625 -6.160156 6.800781 -6.617188 6.625 -7.046875 C 6.457031 -7.460938 6.234375 -7.832031 5.953125 -8.15625 C 5.804688 -8.300781 5.640625 -8.429688 5.453125 -8.546875 C 5.273438 -8.660156 5.078125 -8.757812 4.859375 -8.84375 C 4.421875 -9 3.914062 -9.050781 3.34375 -9 Z M 3.34375 -9 "/></g></g><g style="fill:#000000;fill-opacity:1;"><g transform="translate(185.891115, 53.194921)"><path style="stroke:none" d="M 0.484375 -5.0625 C 0.503906 -5.84375 0.640625 -6.570312 0.890625 -7.25 C 1.140625 -7.925781 1.488281 -8.507812 1.9375 -9 C 2.40625 -9.507812 2.957031 -9.894531 3.59375 -10.15625 C 3.925781 -10.289062 4.269531 -10.390625 4.625 -10.453125 C 4.988281 -10.515625 5.367188 -10.539062 5.765625 -10.53125 C 6.160156 -10.519531 6.539062 -10.472656 6.90625 -10.390625 C 7.269531 -10.316406 7.601562 -10.195312 7.90625 -10.03125 C 8.226562 -9.882812 8.519531 -9.707031 8.78125 -9.5 C 9.050781 -9.289062 9.289062 -9.050781 9.5 -8.78125 C 9.9375 -8.257812 10.269531 -7.664062 10.5 -7 C 10.707031 -6.3125 10.800781 -5.582031 10.78125 -4.8125 C 10.757812 -4.050781 10.628906 -3.335938 10.390625 -2.671875 C 10.304688 -2.453125 10.207031 -2.234375 10.09375 -2.015625 C 9.988281 -1.804688 9.867188 -1.609375 9.734375 -1.421875 C 9.609375 -1.242188 9.472656 -1.066406 9.328125 -0.890625 C 9.097656 -0.640625 8.84375 -0.414062 8.5625 -0.21875 C 8.28125 -0.0195312 7.984375 0.144531 7.671875 0.28125 C 7.023438 0.5625 6.296875 0.691406 5.484375 0.671875 C 4.671875 0.648438 3.953125 0.484375 3.328125 0.171875 C 3.171875 0.0859375 3.019531 0 2.875 -0.09375 C 2.738281 -0.1875 2.601562 -0.28125 2.46875 -0.375 C 2.34375 -0.476562 2.21875 -0.585938 2.09375 -0.703125 C 1.96875 -0.828125 1.851562 -0.953125 1.75 -1.078125 C 1.320312 -1.597656 1 -2.207031 0.78125 -2.90625 C 0.5625 -3.582031 0.460938 -4.300781 0.484375 -5.0625 Z M 2.609375 -5.015625 C 2.609375 -4.773438 2.617188 -4.535156 2.640625 -4.296875 C 2.671875 -4.066406 2.71875 -3.835938 2.78125 -3.609375 C 2.851562 -3.378906 2.929688 -3.160156 3.015625 -2.953125 C 3.109375 -2.753906 3.222656 -2.570312 3.359375 -2.40625 C 3.398438 -2.34375 3.441406 -2.285156 3.484375 -2.234375 C 3.535156 -2.179688 3.582031 -2.128906 3.625 -2.078125 C 3.675781 -2.023438 3.726562 -1.972656 3.78125 -1.921875 C 3.832031 -1.878906 3.882812 -1.835938 3.9375 -1.796875 C 4 -1.765625 4.054688 -1.722656 4.109375 -1.671875 C 4.171875 -1.628906 4.234375 -1.59375 4.296875 -1.5625 C 4.648438 -1.351562 5.0625 -1.242188 5.53125 -1.234375 C 5.707031 -1.234375 5.875 -1.238281 6.03125 -1.25 C 6.1875 -1.269531 6.332031 -1.296875 6.46875 -1.328125 C 6.601562 -1.367188 6.734375 -1.421875 6.859375 -1.484375 C 7.234375 -1.648438 7.550781 -1.894531 7.8125 -2.21875 C 7.894531 -2.3125 7.972656 -2.414062 8.046875 -2.53125 C 8.117188 -2.65625 8.179688 -2.785156 8.234375 -2.921875 C 8.296875 -3.066406 8.359375 -3.210938 8.421875 -3.359375 C 8.566406 -3.816406 8.644531 -4.316406 8.65625 -4.859375 C 8.664062 -5.347656 8.601562 -5.816406 8.46875 -6.265625 C 8.34375 -6.710938 8.148438 -7.113281 7.890625 -7.46875 C 7.640625 -7.8125 7.332031 -8.085938 6.96875 -8.296875 C 6.613281 -8.503906 6.195312 -8.613281 5.71875 -8.625 C 5.601562 -8.632812 5.488281 -8.632812 5.375 -8.625 C 5.257812 -8.613281 5.144531 -8.597656 5.03125 -8.578125 C 4.925781 -8.554688 4.828125 -8.53125 4.734375 -8.5 C 4.640625 -8.46875 4.550781 -8.425781 4.46875 -8.375 C 4.257812 -8.300781 4.078125 -8.203125 3.921875 -8.078125 C 3.765625 -7.953125 3.617188 -7.8125 3.484375 -7.65625 C 3.222656 -7.332031 3.007812 -6.953125 2.84375 -6.515625 C 2.695312 -6.046875 2.617188 -5.546875 2.609375 -5.015625 Z M 2.609375 -5.015625 "/></g></g><g style="fill:#000000;fill-opacity:1;"><g transform="translate(202.216746, 53.932182)"><path style="stroke:none" d="M 6.765625 1.1875 L 5.890625 -1.703125 C 5.691406 -2.335938 5.398438 -2.8125 5.015625 -3.125 C 4.898438 -3.21875 4.765625 -3.300781 4.609375 -3.375 C 4.460938 -3.445312 4.300781 -3.503906 4.125 -3.546875 C 3.945312 -3.597656 3.753906 -3.644531 3.546875 -3.6875 L 3.015625 0.390625 L 2.96875 0.75 L 2.609375 0.703125 L 1.234375 0.53125 L 0.890625 0.484375 L 0.9375 0.125 L 2.234375 -9.90625 L 2.28125 -10.21875 L 2.609375 -10.203125 C 2.867188 -10.191406 3.125 -10.179688 3.375 -10.171875 C 3.625 -10.160156 3.863281 -10.144531 4.09375 -10.125 C 4.550781 -10.09375 5.050781 -10.039062 5.59375 -9.96875 C 6.238281 -9.882812 6.804688 -9.75 7.296875 -9.5625 C 7.773438 -9.351562 8.160156 -9.09375 8.453125 -8.78125 C 8.785156 -8.457031 9.019531 -8.09375 9.15625 -7.6875 C 9.289062 -7.289062 9.328125 -6.867188 9.265625 -6.421875 C 9.160156 -5.628906 8.832031 -5.015625 8.28125 -4.578125 C 7.925781 -4.296875 7.5 -4.082031 7 -3.9375 C 7.0625 -3.863281 7.113281 -3.796875 7.15625 -3.734375 C 7.207031 -3.679688 7.257812 -3.613281 7.3125 -3.53125 C 7.382812 -3.425781 7.453125 -3.316406 7.515625 -3.203125 C 7.585938 -3.097656 7.648438 -2.976562 7.703125 -2.84375 C 7.828125 -2.59375 7.941406 -2.285156 8.046875 -1.921875 L 8.828125 0.546875 L 8.9375 0.890625 L 8.59375 1.015625 L 7.25 1.453125 L 6.90625 1.5625 Z M 5.359375 -8.109375 C 5.203125 -8.128906 5.050781 -8.144531 4.90625 -8.15625 C 4.757812 -8.175781 4.625 -8.191406 4.5 -8.203125 C 4.457031 -8.210938 4.410156 -8.21875 4.359375 -8.21875 C 4.316406 -8.21875 4.273438 -8.21875 4.234375 -8.21875 C 4.191406 -8.226562 4.160156 -8.234375 4.140625 -8.234375 L 3.78125 -5.5625 L 5 -5.40625 C 5.613281 -5.320312 6.128906 -5.390625 6.546875 -5.609375 C 6.890625 -5.796875 7.09375 -6.117188 7.15625 -6.578125 C 7.175781 -6.753906 7.160156 -6.921875 7.109375 -7.078125 C 7.066406 -7.234375 6.96875 -7.378906 6.8125 -7.515625 C 6.664062 -7.660156 6.472656 -7.785156 6.234375 -7.890625 C 5.992188 -7.992188 5.703125 -8.066406 5.359375 -8.109375 Z M 5.359375 -8.109375 "/></g></g><g style="fill:#000000;fill-opacity:1;"><g transform="translate(216.34439, 56.010548)"><path style="stroke:none" d="M -0.0625 -0.515625 L 6.03125 -9.140625 L 6.171875 -9.359375 L 6.390625 -9.296875 L 7.875 -8.953125 L 8.09375 -8.90625 L 8.140625 -8.65625 L 9.734375 1.75 L 9.78125 2.109375 L 9.421875 2.15625 L 8.09375 2.375 L 7.734375 2.4375 L 7.6875 2.078125 L 7.28125 -0.765625 L 3.1875 -1.71875 L 1.5625 0.625 L 1.34375 0.921875 L 1.0625 0.703125 L 0.03125 -0.03125 L -0.265625 -0.234375 Z M 4.3125 -3.375 L 6.984375 -2.765625 L 6.453125 -6.484375 Z M 4.3125 -3.375 "/></g></g><g style="fill:#000000;fill-opacity:1;"><g transform="translate(230.953829, 59.751509)"><path style="stroke:none" d=""/></g></g><g style="fill:#000000;fill-opacity:1;"><g transform="translate(240.195459, 62.833948)"><path style="stroke:none" d="M 2.3125 -4.53125 C 2.613281 -5.25 3.003906 -5.875 3.484375 -6.40625 C 3.972656 -6.945312 4.515625 -7.363281 5.109375 -7.65625 C 5.734375 -7.957031 6.390625 -8.109375 7.078125 -8.109375 C 7.429688 -8.117188 7.785156 -8.085938 8.140625 -8.015625 C 8.503906 -7.941406 8.867188 -7.832031 9.234375 -7.6875 C 9.597656 -7.53125 9.929688 -7.34375 10.234375 -7.125 C 10.535156 -6.914062 10.800781 -6.679688 11.03125 -6.421875 C 11.28125 -6.171875 11.488281 -5.894531 11.65625 -5.59375 C 11.820312 -5.300781 11.957031 -4.992188 12.0625 -4.671875 C 12.269531 -4.023438 12.359375 -3.347656 12.328125 -2.640625 C 12.273438 -1.929688 12.097656 -1.222656 11.796875 -0.515625 C 11.492188 0.179688 11.109375 0.800781 10.640625 1.34375 C 10.484375 1.507812 10.316406 1.671875 10.140625 1.828125 C 9.960938 1.984375 9.78125 2.125 9.59375 2.25 C 9.40625 2.375 9.207031 2.488281 9 2.59375 C 8.6875 2.75 8.363281 2.863281 8.03125 2.9375 C 7.707031 3.019531 7.375 3.070312 7.03125 3.09375 C 6.332031 3.101562 5.609375 2.945312 4.859375 2.625 C 4.109375 2.3125 3.5 1.898438 3.03125 1.390625 C 2.914062 1.242188 2.804688 1.101562 2.703125 0.96875 C 2.609375 0.84375 2.519531 0.707031 2.4375 0.5625 C 2.351562 0.414062 2.273438 0.265625 2.203125 0.109375 C 2.128906 -0.046875 2.066406 -0.203125 2.015625 -0.359375 C 1.816406 -0.992188 1.738281 -1.675781 1.78125 -2.40625 C 1.832031 -3.125 2.007812 -3.832031 2.3125 -4.53125 Z M 4.265625 -3.703125 C 4.171875 -3.484375 4.09375 -3.257812 4.03125 -3.03125 C 3.976562 -2.800781 3.9375 -2.566406 3.90625 -2.328125 C 3.894531 -2.085938 3.890625 -1.859375 3.890625 -1.640625 C 3.898438 -1.421875 3.9375 -1.207031 4 -1 C 4.019531 -0.925781 4.039062 -0.859375 4.0625 -0.796875 C 4.082031 -0.742188 4.101562 -0.679688 4.125 -0.609375 C 4.15625 -0.535156 4.1875 -0.46875 4.21875 -0.40625 C 4.257812 -0.34375 4.296875 -0.28125 4.328125 -0.21875 C 4.367188 -0.164062 4.40625 -0.109375 4.4375 -0.046875 C 4.476562 0.015625 4.519531 0.0664062 4.5625 0.109375 C 4.820312 0.441406 5.164062 0.695312 5.59375 0.875 C 5.757812 0.945312 5.914062 1.003906 6.0625 1.046875 C 6.21875 1.085938 6.363281 1.113281 6.5 1.125 C 6.644531 1.144531 6.78125 1.144531 6.90625 1.125 C 7.332031 1.113281 7.722656 1.007812 8.078125 0.8125 C 8.191406 0.75 8.300781 0.675781 8.40625 0.59375 C 8.519531 0.507812 8.628906 0.410156 8.734375 0.296875 C 8.847656 0.191406 8.957031 0.0820312 9.0625 -0.03125 C 9.375 -0.40625 9.632812 -0.84375 9.84375 -1.34375 C 10.03125 -1.789062 10.144531 -2.242188 10.1875 -2.703125 C 10.226562 -3.171875 10.191406 -3.613281 10.078125 -4.03125 C 9.972656 -4.445312 9.796875 -4.820312 9.546875 -5.15625 C 9.273438 -5.476562 8.921875 -5.734375 8.484375 -5.921875 C 8.378906 -5.960938 8.269531 -6 8.15625 -6.03125 C 8.050781 -6.070312 7.941406 -6.101562 7.828125 -6.125 C 7.710938 -6.144531 7.609375 -6.15625 7.515625 -6.15625 C 7.421875 -6.164062 7.320312 -6.164062 7.21875 -6.15625 C 7.007812 -6.15625 6.804688 -6.125 6.609375 -6.0625 C 6.421875 -6.007812 6.234375 -5.9375 6.046875 -5.84375 C 5.679688 -5.632812 5.34375 -5.359375 5.03125 -5.015625 C 4.726562 -4.628906 4.472656 -4.191406 4.265625 -3.703125 Z M 4.265625 -3.703125 "/></g></g><g style="fill:#000000;fill-opacity:1;"><g transform="translate(255.100924, 69.492893)"><path style="stroke:none" d="M 5.96875 -4.609375 L 2.59375 1.453125 L 2.421875 1.765625 L 2.109375 1.578125 L 0.953125 0.9375 L 0.640625 0.765625 L 0.8125 0.453125 L 5.75 -8.40625 L 5.9375 -8.71875 L 6.25 -8.546875 L 7.859375 -7.640625 L 8.046875 -7.546875 L 8.046875 -7.3125 L 7.859375 0.78125 L 11.265625 -5.328125 L 11.453125 -5.640625 L 11.765625 -5.46875 L 12.90625 -4.828125 L 13.21875 -4.65625 L 13.03125 -4.34375 L 8.09375 4.515625 L 7.921875 4.828125 L 7.609375 4.65625 L 6.765625 4.1875 L 6.03125 3.78125 L 5.84375 3.671875 L 5.859375 3.46875 Z M 5.96875 -4.609375 "/></g></g><g style="fill:#000000;fill-opacity:1;"><g transform="translate(268.530163, 77.361353)"><path style="stroke:none" d="M 5.828125 4.46875 L 0.859375 1.03125 L 0.5625 0.828125 L 0.765625 0.53125 L 6.53125 -7.8125 L 6.734375 -8.109375 L 7.03125 -7.90625 L 8.171875 -7.125 L 8.46875 -6.90625 L 8.265625 -6.609375 L 3.40625 0.421875 L 6.9375 2.859375 L 7.234375 3.0625 L 7.03125 3.359375 L 6.328125 4.375 L 6.125 4.671875 Z M 5.828125 4.46875 "/></g></g><g style="fill:#000000;fill-opacity:1;"><g transform="translate(278.938562, 84.894614)"><path style="stroke:none" d="M 0.734375 0.59375 L 7.125 -7.28125 L 7.34375 -7.5625 L 7.609375 -7.34375 L 8.6875 -6.46875 L 8.96875 -6.234375 L 8.75 -5.953125 L 2.359375 1.921875 L 2.140625 2.203125 L 1.859375 1.96875 L 0.78125 1.09375 L 0.515625 0.875 Z M 0.734375 0.59375 "/></g></g><g style="fill:#000000;fill-opacity:1;"><g transform="translate(286.176481, 90.887615)"><path style="stroke:none" d="M 6.953125 -2.9375 L 2.140625 2.0625 L 1.890625 2.328125 L 1.625 2.078125 L 0.6875 1.171875 L 0.421875 0.921875 L 0.671875 0.65625 L 7.703125 -6.65625 L 7.953125 -6.90625 L 8.21875 -6.65625 L 9.53125 -5.390625 L 9.6875 -5.25 L 9.625 -5.046875 L 7.40625 2.75 L 12.25 -2.28125 L 12.5 -2.53125 L 12.765625 -2.28125 L 13.703125 -1.390625 L 13.953125 -1.140625 L 13.703125 -0.890625 L 6.671875 6.421875 L 6.421875 6.6875 L 6.171875 6.4375 L 5.46875 5.765625 L 4.875 5.1875 L 4.71875 5.046875 L 4.78125 4.84375 Z M 6.953125 -2.9375 "/></g></g><g style="fill:#000000;fill-opacity:1;"><g transform="translate(297.167637, 101.896164)"><path style="stroke:none" d="M 8.828125 -5.828125 L 12.78125 -1.1875 L 13.015625 -0.921875 L 12.75 -0.6875 L 11.84375 0.078125 L 11.5625 0.3125 L 11.328125 0.046875 L 8.515625 -3.265625 L 6.71875 -1.734375 L 9.109375 1.078125 L 9.34375 1.34375 L 9.0625 1.59375 L 8.1875 2.34375 L 7.90625 2.5625 L 7.671875 2.296875 L 5.28125 -0.515625 L 3.15625 1.3125 L 5.96875 4.625 L 6.203125 4.890625 L 5.9375 5.125 L 5.03125 5.890625 L 4.765625 6.125 L 4.53125 5.859375 L 0.578125 1.21875 L 0.34375 0.953125 L 0.609375 0.71875 L 8.328125 -5.859375 L 8.59375 -6.09375 Z M 8.828125 -5.828125 "/></g></g></g></svg>